<svg xmlns="http://www.w3.org/2000/svg" width="57" height="57" viewBox="0 0 57 57">
    <g fill="none" fill-rule="evenodd" stroke-linecap="round" stroke-linejoin="round" stroke-width="2.5">
        <path stroke="#FF8B34" d="M25.172 27.742l-.32-.079-.718-2.845c1.757-1.56 2.93-3.907 3.117-6.243h.073c.772 0 1.423-.568 1.518-1.325l.382-3.029a1.517 1.517 0 0 0-1.5-1.7l.187-3.789.764-.757c.989-1.043.989-2.29 0-3.786-.995-1.505-2.728-2.273-5.153-2.273-1.282 0-3.509.068-5.55 1.514-6.161.063-6.882 2.604-6.882 5.302 0 .95.361 3.786.361 3.786h-.157c-.919 0-1.632.798-1.517 1.703l.382 3.029a1.524 1.524 0 0 0 1.518 1.325h.247c.184 2.274 1.296 4.56 2.974 6.118l-.75 2.97-6.301 1.56c-3.485.864-5.93 3.966-5.93 7.523v.003h22M49.21 47.656l-6.243-1.54-.711-2.809c1.74-1.538 2.902-3.853 3.087-6.158h.074a1.51 1.51 0 0 0 1.503-1.309l.378-2.99c.111-.886-.583-1.667-1.485-1.676l.183-3.74.757-.748c.98-1.028.98-2.258 0-3.736-.984-1.485-2.7-2.242-5.102-2.242-1.27 0-3.476.066-5.498 1.494-6.103.06-6.817 2.57-6.817 5.232 0 .937.358 3.737.358 3.737h-.156c-.911 0-1.615.788-1.503 1.679l.38 2.99a1.508 1.508 0 0 0 1.503 1.31h.245c.18 2.241 1.284 4.498 2.945 6.034l-.743 2.932-6.24 1.54c-3.453.85-5.875 3.912-5.875 7.423v.004h34.834v-.004c0-3.51-2.422-6.572-5.874-7.423z"/>
        <path stroke="#FFC599" d="M34.917 1.917h6.068c3.76 0 6.809 3.105 6.809 6.935l-.044 7.731 3.667-3.666M47.75 16.583l-3.667-3.666M16.583 55.083h-.568c-3.76 0-6.809-3.105-6.809-6.935l.044-7.731-3.667 3.666M9.25 40.417l3.667 3.666"/>
    </g>
</svg>
