<svg xmlns="http://www.w3.org/2000/svg" width="70" height="60" viewBox="0 0 70 60">
    <g fill="#FF8B34" fill-rule="nonzero">
        <path d="M46.601 54.285v2.587a2.183 2.183 0 0 1-2.179 2.186H25.52a2.183 2.183 0 0 1-2.18-2.186v-2.587c0-.897.548-1.708 1.391-2.038 1.888-.735 3.431-1.391 4.6-1.975.65-.325 1.161-.617 1.51-.863.069-.049.13-.094.18-.135v-.01c-.576-.717-1.034-1.584-1.351-2.548a3.132 3.132 0 0 1-.503-3.669v-1.889c0-3.321 2.187-5.476 5.805-5.476 3.672 0 5.803 2.13 5.803 5.476v1.888a3.131 3.131 0 0 1-.504 3.671c-.316.963-.774 1.83-1.35 2.547v.01c.052.041.112.087.182.136.348.245.859.537 1.51.863 1.168.583 2.711 1.24 4.597 1.974a2.187 2.187 0 0 1 1.392 2.038zm-10.533-4.103a1.442 1.442 0 0 1-.064-.427v-1.034c0-.376.146-.737.409-1.007.506-.522.923-1.286 1.176-2.197a1.45 1.45 0 0 1 .56-.796c.097-.068.12-.227.029-.34a1.445 1.445 0 0 1-.321-.908v-2.315c0-1.748-.829-2.576-2.886-2.576-2.013 0-2.888.862-2.888 2.576v2.316c0 .33-.113.65-.321.907-.09.112-.067.272.03.34.272.194.47.475.56.796.252.911.668 1.675 1.175 2.197.263.27.41.631.41 1.007v1.034c0 .145-.022.289-.065.427-.46 1.49-2.765 2.68-7.616 4.585v1.391h17.429v-1.391c-4.848-1.903-7.155-3.094-7.617-4.585zM69.936 22.383v2.587a2.183 2.183 0 0 1-2.179 2.186H48.854a2.183 2.183 0 0 1-2.18-2.186v-2.587c0-.897.548-1.709 1.39-2.038 1.889-.735 3.432-1.391 4.6-1.975.651-.326 1.162-.618 1.51-.863.07-.049.13-.094.181-.135v-.01c-.576-.717-1.035-1.585-1.351-2.548a3.132 3.132 0 0 1-.503-3.67V9.257c0-3.322 2.187-5.476 5.804-5.476 3.672 0 5.803 2.129 5.803 5.476v1.888a3.131 3.131 0 0 1-.503 3.671c-.316.963-.775 1.83-1.35 2.547v.01c.051.041.112.087.181.136.348.245.86.537 1.51.863 1.168.583 2.712 1.24 4.598 1.974a2.187 2.187 0 0 1 1.392 2.038zM59.403 18.28a1.442 1.442 0 0 1-.065-.427V16.82c0-.376.147-.737.41-1.007.506-.522.922-1.286 1.175-2.197a1.45 1.45 0 0 1 .561-.796c.097-.068.12-.227.029-.34a1.445 1.445 0 0 1-.321-.908V9.256c0-1.749-.829-2.576-2.887-2.576-2.012 0-2.887.862-2.887 2.576v2.316c0 .33-.114.65-.321.907-.09.112-.067.272.03.34.272.194.47.475.559.796.253.91.67 1.675 1.176 2.196.263.27.41.632.41 1.008v1.034c0 .145-.022.288-.065.427-.461 1.49-2.765 2.68-7.616 4.584v1.392H67.02v-1.391c-4.847-1.903-7.154-3.094-7.616-4.585zM23.267 22.383v2.587a2.183 2.183 0 0 1-2.18 2.186H2.184A2.183 2.183 0 0 1 .005 24.97v-2.587c0-.897.547-1.709 1.39-2.038 1.887-.735 3.431-1.391 4.6-1.975.65-.326 1.161-.618 1.51-.863.069-.05.13-.095.18-.136v-.009c-.576-.717-1.034-1.585-1.35-2.548a3.132 3.132 0 0 1-.504-3.67V9.257c0-3.322 2.188-5.476 5.805-5.476 3.672 0 5.803 2.129 5.803 5.476v1.888a3.131 3.131 0 0 1-.503 3.671c-.317.963-.775 1.83-1.35 2.547v.01c.05.04.111.087.181.136.348.245.859.537 1.51.863 1.168.583 2.712 1.24 4.597 1.974a2.187 2.187 0 0 1 1.393 2.038zM12.734 18.28a1.442 1.442 0 0 1-.065-.427V16.82c0-.376.147-.737.41-1.007.506-.522.922-1.286 1.175-2.197a1.45 1.45 0 0 1 .56-.796c.097-.068.12-.227.03-.34a1.445 1.445 0 0 1-.322-.908V9.256c0-1.749-.828-2.576-2.886-2.576-2.013 0-2.888.862-2.888 2.576v2.316c0 .33-.113.65-.32.907-.091.112-.068.272.029.34.273.194.47.475.56.796.252.91.669 1.675 1.176 2.196.262.27.41.632.41 1.008v1.034c0 .145-.023.288-.065.427-.462 1.49-2.767 2.68-7.616 4.584v1.392H20.35v-1.391c-4.846-1.902-7.154-3.094-7.616-4.585z"/>
        <path d="M48.732 4.398c.696.403.932 1.29.527 1.983a1.463 1.463 0 0 1-1.994.523A23.743 23.743 0 0 0 35.33 3.706a23.744 23.744 0 0 0-11.935 3.198 1.463 1.463 0 0 1-1.994-.523 1.445 1.445 0 0 1 .526-1.983A26.673 26.673 0 0 1 35.33.806c4.768 0 9.358 1.252 13.402 3.592zM50.045 49.46a1.463 1.463 0 0 1-2.021-.407 1.445 1.445 0 0 1 .41-2.01c5.831-3.842 9.712-10.04 10.51-17.002l2.897.328a26.26 26.26 0 0 1-3.78 10.862 26.735 26.735 0 0 1-8.016 8.23zM61.84 30.37a26.262 26.262 0 0 1-3.78 10.862 26.733 26.733 0 0 1-8.016 8.23 1.463 1.463 0 0 1-2.021-.408 1.445 1.445 0 0 1 .41-2.01c5.831-3.842 9.712-10.039 10.51-17.002.22-1.92 3.117-1.593 2.897.328zM22.636 49.053c-.445.667-1.35.85-2.021.407C14.072 45.15 9.714 38.191 8.819 30.37c-.22-1.92 2.678-2.249 2.898-.328.797 6.963 4.678 13.16 10.51 17.002a1.445 1.445 0 0 1 .41 2.01z" opacity=".5"/>
    </g>
</svg>
