<svg xmlns="http://www.w3.org/2000/svg" width="70" height="40" viewBox="0 0 70 40">
    <g fill="#FF8B34" fill-rule="nonzero">
        <path d="M48.473 27.232c.617.52.697 1.444.179 2.063-.518.62-1.438.7-2.055.18l-6.246-5.268a1.468 1.468 0 0 1-.179-2.063c.518-.619 1.438-.7 2.055-.18l6.246 5.268zM42.719 30.414c.623.512.715 1.434.204 2.06a1.454 1.454 0 0 1-2.052.206l-5.092-4.185a1.468 1.468 0 0 1-.205-2.06 1.454 1.454 0 0 1 2.052-.206l5.093 4.185zM35.836 37.995c-1.527 1.879-4.173 2.04-6.33.206l-.193-.15-.534-.423c-.573-.456-1.211-.972-1.898-1.536a145.015 145.015 0 0 1-5.76-4.983 92.092 92.092 0 0 1-2.732-2.598c-3.095-3.077-5.098-5.589-5.774-7.54a1.466 1.466 0 0 1 .898-1.864 1.457 1.457 0 0 1 1.856.901c.481 1.388 2.289 3.655 5.072 6.422.813.808 1.698 1.649 2.644 2.515a142.162 142.162 0 0 0 5.645 4.881 149.75 149.75 0 0 0 2.38 1.917l.23.182c.992.843 1.767.796 2.236.219.47-.579.41-1.402-.314-2.017l-.073-.066-2.218-2.162a1.469 1.469 0 0 1-.031-2.07 1.454 1.454 0 0 1 2.062-.032l2.186 2.13c1.917 1.664 2.099 4.283.648 6.068z" opacity=".5"/>
        <path d="M42.59 34.22l-1.521-1.293c-1.485-1.261.4-3.497 1.883-2.236l1.523 1.294c.733.623 1.583.484 2.218-.27.635-.755.63-1.623-.1-2.244l.942-1.117.942-1.118c1.14.968 1.648 2.24 1.595 3.509-1.099.106-2.245-.225-3.244-1.074l-.235-.2c-1.484-1.26.4-3.496 1.884-2.235l.235.2c.734.623 1.584.484 2.219-.27.634-.755.63-1.623-.08-2.226L36.545 13.227c-.182.06-.37.118-.56.175-.36.107-.71.2-1.048.276-.51.114-.967.187-1.384.206l-.082.11a20.212 20.212 0 0 1-1.497 1.783c-1.354 1.429-2.723 2.414-4.153 2.744-1.164.27-2.303.069-3.289-.652-2.281-1.671-2.31-5.448-.51-8.946 1.9-3.696 5.444-6.449 9.918-7.178.102-.024.232-.048.388-.07 2.796-.387 7.307.566 13.764 3.837l3.05-.928a1.457 1.457 0 0 1 1.819.977 1.465 1.465 0 0 1-.973 1.826l-3.612 1.098c-.363.11-.754.075-1.091-.1-3.57-1.847-6.57-2.967-9.033-3.502-1.63-.353-2.792-.408-3.526-.307-.082.012-.113.018-.095.013a1.453 1.453 0 0 1-.173.038c-3.551.563-6.347 2.726-7.845 5.64-1.22 2.37-1.203 4.62-.362 5.235.276.203.548.25.917.165.743-.171 1.7-.86 2.694-1.909a17.331 17.331 0 0 0 1.754-2.194 1.455 1.455 0 0 1 1.622-.608c.08.023.506-.012 1.064-.137.268-.06.556-.136.855-.225a18.3 18.3 0 0 0 1.155-.387 1.454 1.454 0 0 1 1.444.233l14.959 12.247c2.044 1.737 2.057 4.45.444 6.368-.828.984-1.931 1.578-3.087 1.69-.042 1.006-.437 2.01-1.151 2.86-1.167 1.386-2.883 1.999-4.518 1.576a4.605 4.605 0 0 1-.878 1.722c-1.566 1.936-4.242 2.198-6.46.312l-6.035-5.261a1.468 1.468 0 0 1-.145-2.066 1.454 1.454 0 0 1 2.057-.146l6.02 5.25c.954.81 1.76.731 2.3.064.538-.665.501-1.539-.193-2.13l1.884-2.235c1.408 1.197 1.863 2.924 1.45 4.49a4.56 4.56 0 0 1-1.812-.96z" opacity=".5"/>
        <path d="M11.286 24.666l5.437-19.197-7.782-2.204-5.437 19.197 7.782 2.204zm.605 3.215L1.303 24.882a1.461 1.461 0 0 1-1.004-1.806L6.533 1.061A1.461 1.461 0 0 1 8.336.049l10.588 3a1.461 1.461 0 0 1 1.005 1.805L13.694 26.87a1.461 1.461 0 0 1-1.803 1.011zM53.312 6.057l5.437 19.197 7.782-2.204-5.437-19.197-7.782 2.204zm-2.201-2.42l10.588-3a1.461 1.461 0 0 1 1.802 1.012l6.235 22.015c.22.778-.229 1.587-1.004 1.807l-10.588 2.998a1.461 1.461 0 0 1-1.803-1.011L50.106 5.443a1.461 1.461 0 0 1 1.005-1.807z"/>
        <path d="M17.39 7.23a1.467 1.467 0 0 1-.574-1.99c.402-.731 1.35-1.067 3.535-1.363 2.058-.28 5.141-.48 9.455-.574a1.461 1.461 0 0 1 1.49 1.432 1.462 1.462 0 0 1-1.427 1.496c-4.213.091-7.194.285-9.128.548-.908.123-1.49.248-1.792.355.06-.021.231-.133.422-.48a1.455 1.455 0 0 1-1.981.576zM52.37 26.785a1.465 1.465 0 0 1 .732-2.835c.03.008.121.027.257.048.535.084 1.105.089 1.596-.03.403-.096.71-.266.928-.517a1.454 1.454 0 0 1 2.058-.137c.606.532.667 1.457.137 2.066-.647.742-1.487 1.206-2.444 1.437-.916.22-1.847.213-2.725.075a5.8 5.8 0 0 1-.539-.107z" opacity=".5"/>
    </g>
</svg>
