<svg xmlns="http://www.w3.org/2000/svg" width="144" height="143" viewBox="0 0 144 143">
    <defs>
        <filter id="a" width="138.3%" height="138.3%" x="-19.2%" y="-19.2%" filterUnits="objectBoundingBox">
            <feOffset in="SourceAlpha" result="shadowOffsetOuter1"/>
            <feGaussianBlur in="shadowOffsetOuter1" result="shadowBlurOuter1" stdDeviation="6"/>
            <feColorMatrix in="shadowBlurOuter1" result="shadowMatrixOuter1" values="0 0 0 0 0.372714711 0 0 0 0 0.180428644 0 0 0 0 0.0362140931 0 0 0 0.146456069 0"/>
            <feMerge>
                <feMergeNode in="shadowMatrixOuter1"/>
                <feMergeNode in="SourceGraphic"/>
            </feMerge>
        </filter>
        <radialGradient id="b" r="63.181%" fx="50%" fy="50%" gradientTransform="matrix(-.60897 -.79137 .78832 -.61133 .41 1.201)">
            <stop offset="0%" stop-color="#FFF"/>
            <stop offset="100%" stop-color="#F8F5F2"/>
        </radialGradient>
    </defs>
    <g fill="none" fill-rule="evenodd" filter="url(#a)" transform="translate(12 12)">
        <path fill="url(#b)" d="M0 59.57c0 32.9 26.773 59.57 59.8 59.57s59.801-26.67 59.801-59.57S92.827 0 59.801 0C26.773 0 0 26.67 0 59.57"/>
        <path fill="#0F1820" d="M53.287 100.732l-1.133-.218-.69 3.53-.623-.12.69-3.53-1.135-.22.108-.558 2.892.558zM56.843 102.65c-.035.327-.067.577-.097.75-.03.171-.082.33-.155.477a1.25 1.25 0 0 1-.32.396 1.52 1.52 0 0 1-1.146.33 1.497 1.497 0 0 1-1.05-.553 1.23 1.23 0 0 1-.237-.452 1.729 1.729 0 0 1-.055-.498c.004-.177.024-.429.058-.756.026-.252.05-.451.072-.599.022-.147.052-.28.088-.401.037-.121.088-.232.153-.333a1.26 1.26 0 0 1 .266-.29 1.502 1.502 0 0 1 1.142-.329c.434.045.787.23 1.055.553.114.146.192.297.232.453.041.156.058.322.053.498a11.27 11.27 0 0 1-.06.754zm-.633-.064c.043-.412.057-.703.043-.875a.813.813 0 0 0-.156-.435.792.792 0 0 0-.256-.214.895.895 0 0 0-.693-.07.783.783 0 0 0-.295.157.84.84 0 0 0-.242.397c-.05.163-.095.45-.138.862-.023.22-.037.395-.044.528-.007.131-.006.248.002.348.01.1.024.18.046.237.02.058.057.124.109.198a.816.816 0 0 0 .26.215c.105.057.217.091.337.104a.824.824 0 0 0 .647-.192.753.753 0 0 0 .183-.237c.044-.09.082-.217.112-.378.029-.161.057-.376.085-.645zM60.373 101.921c.003-.216-.062-.387-.195-.513s-.312-.19-.536-.194l-.918-.015-.022 1.385.917.015c.227.004.407-.055.544-.175.136-.12.206-.288.21-.503m.635.01a1.284 1.284 0 0 1-.174.646c-.113.19-.272.338-.48.443a1.473 1.473 0 0 1-.71.153l-.952-.015-.026 1.637-.642-.01.069-4.165 1.59.026c.199.003.382.038.552.104.17.067.312.158.428.273.115.116.202.25.261.401.059.152.087.321.084.506M66.177 104.387l-2.424.27-.059-.527 1.384-2.115c.128-.199.181-.392.16-.579a.742.742 0 0 0-.109-.317.504.504 0 0 0-.236-.2.66.66 0 0 0-.335-.042.64.64 0 0 0-.42.205c-.106.117-.146.284-.122.502l-.597.067a1.248 1.248 0 0 1 .036-.487c.043-.152.114-.286.21-.4.097-.114.217-.207.357-.279.14-.07.3-.116.476-.136.239-.027.454-.003.647.072.192.074.35.193.47.358.12.165.195.363.22.596.02.17.008.322-.037.454a2.339 2.339 0 0 1-.252.486l-1.126 1.733 1.697-.19.06.529zM69.45 102.62c.047.238.035.455-.036.652-.072.197-.189.36-.352.49-.162.13-.354.218-.574.26-.22.042-.43.033-.63-.028-.2-.06-.368-.17-.507-.327a1.225 1.225 0 0 1-.278-.59l-.354-1.814a1.264 1.264 0 0 1-.004-.5 1.092 1.092 0 0 1 .519-.73c.134-.08.281-.136.443-.167.162-.031.321-.034.477-.009.157.025.299.078.427.159s.238.189.328.323c.09.134.153.289.188.467l.354 1.814zm-.593.097l-.347-1.78a.798.798 0 0 0-.14-.331.551.551 0 0 0-.257-.196.613.613 0 0 0-.334-.023.602.602 0 0 0-.302.146.543.543 0 0 0-.16.275.815.815 0 0 0-.004.359l.347 1.78c.039.2.124.351.254.453a.56.56 0 0 0 .472.1.563.563 0 0 0 .404-.268.72.72 0 0 0 .067-.515z"/>
        <path fill="#EDB630" d="M82.058 95.832c-.64.025-1.286.081-1.925.147.545.335 1.073.677 1.577 1.041-.158.6-.305 1.214-.437 1.818.45-.387.927-.753 1.418-1.11.493.357.966.733 1.418 1.117a60.963 60.963 0 0 0-.43-1.825 25.5 25.5 0 0 1 1.575-1.03c-.636-.074-1.28-.129-1.926-.155a46.336 46.336 0 0 0-.63-1.785c-.227.596-.44 1.183-.64 1.782m-45.73.003c-.645.026-1.29.081-1.928.156.545.325 1.074.674 1.579 1.029a55.885 55.885 0 0 0-.432 1.825c.453-.384.927-.76 1.417-1.117.492.357.969.723 1.42 1.11a52.014 52.014 0 0 0-.436-1.818 24.699 24.699 0 0 1 1.576-1.04 30.129 30.129 0 0 0-1.927-.148c-.2-.599-.414-1.186-.639-1.782a46.358 46.358 0 0 0-.63 1.785m38.59 4.144c-.804.03-1.61.096-2.412.177.685.423 1.34.848 1.973 1.304-.198.753-.38 1.522-.544 2.283a26.427 26.427 0 0 1 1.776-1.393 28.69 28.69 0 0 1 1.773 1.395 66.091 66.091 0 0 0-.542-2.283 31.739 31.739 0 0 1 1.982-1.29 31.662 31.662 0 0 0-2.415-.193 50.6 50.6 0 0 0-.792-2.234c-.28.745-.549 1.482-.8 2.234m-31.768 0c-.808.033-1.613.099-2.415.193.685.407 1.344.847 1.977 1.29-.193.762-.37 1.521-.536 2.283a28.32 28.32 0 0 1 1.77-1.395c.618.447 1.212.906 1.775 1.393-.164-.761-.348-1.53-.542-2.283.63-.456 1.288-.881 1.97-1.304-.8-.081-1.606-.147-2.41-.177-.25-.752-.516-1.489-.8-2.234-.28.738-.543 1.487-.79 2.234"/>
        <path stroke="#FF8B34" stroke-width="3.2" d="M118.4 59.603C118.4 27.57 92.256 1.6 60 1.6S1.6 27.571 1.6 59.603c0 32.031 26.144 58.002 58.4 58.002s58.4-25.97 58.4-58.002z" opacity=".7"/>
        <path stroke="#FF8B34" stroke-width=".8" d="M112 59.603c0 28.528-23.281 51.655-52 51.655S8 88.131 8 59.603C8 31.074 31.281 7.947 60 7.947s52 23.127 52 51.656z" opacity=".4"/>
        <path fill="#0F1820" d="M46.494 71.708v-5.274c0-.167-.025-.284-.075-.355-.049-.071-.147-.107-.296-.107h-.278l-.056.055v5.81c0 .148.038.264.116.346a.378.378 0 0 0 .293.126h2.595c.266 0 .418-.108.454-.324.02-.067.028-.169.028-.305H47.3c-.259 0-.528.01-.806.028M52.085 71.708l.01-.352v-1.957c.135.005.321.01.556.01h1.92c.018-.103.027-.202.027-.296 0-.094-.01-.196-.028-.305h-1.92l-.555.009v-1.635l-.01-.573h2.93c.031-.092.047-.198.047-.318a1.7 1.7 0 0 0-.02-.291h-3.578l-.055.055v5.792c0 .141.035.254.106.336a.363.363 0 0 0 .292.126h2.921c.26 0 .41-.108.455-.324.012-.067.018-.165.018-.294H52.66c-.173 0-.365.006-.575.017M61.293 69.13h-1.41a1.123 1.123 0 0 0-.055.306c0 .221.107.333.322.333h1.004c-.006.105-.009.293-.009.563v1.257c-.425.14-.885.212-1.378.212-1.264 0-1.895-.865-1.895-2.596 0-.936.172-1.616.518-2.04.346-.426.785-.638 1.318-.638.667 0 1.25.2 1.752.6a.855.855 0 0 0 .38-.546 2.902 2.902 0 0 0-.955-.508 3.634 3.634 0 0 0-1.132-.184c-.698 0-1.298.25-1.798.75-.254.25-.456.596-.608 1.033-.152.438-.227.946-.227 1.524 0 .856.18 1.592.538 2.207.185.315.448.563.788.745.34.18.738.272 1.196.272.81 0 1.546-.136 2.207-.407v-2.392c0-.172-.043-.297-.13-.374-.086-.078-.228-.116-.426-.116M67.227 70.064c-.062 0-.165-.001-.31-.004l-.227-.005h-1.067l-.538.01.723-2.2c.093-.276.198-.643.315-1.098h.047c.08.308.238.822.473 1.542l.584 1.755zm-1.02-4.092c-.173 0-.312.01-.417.028l-2.123 6.272.019.028a1.496 1.496 0 0 0 .658.018l.537-1.653.65.009h1.242l.648-.01.447 1.33c.043.148.095.247.157.297.062.048.167.073.315.073a.688.688 0 0 0 .37-.092L66.587 66a1.897 1.897 0 0 0-.38-.028zM72.308 71.68c-.259 0-.529.01-.806.028v-5.274c0-.166-.024-.285-.075-.356-.048-.07-.148-.106-.295-.106h-.28l-.055.056v5.81c0 .148.038.263.116.346a.377.377 0 0 0 .293.125H73.8c.266 0 .418-.108.454-.323.02-.068.029-.17.029-.306h-1.976zM35.625 59.916l.01-1.34 2.525.001.042-.138c.076-.25.114-.528.114-.826.001-.297-.037-.569-.114-.806l-.043-.134-1.926-.001c-.23 0-.428.001-.598.005l-.008-1.261 3.122.001.048-.126c.117-.307.177-.609.177-.896 0-.276-.025-.536-.074-.774l-.032-.155-5.286-.004-.196.196-.004 6.915c-.001.386.114.698.34.93.23.231.542.349.93.35l3.115.001c1.01.001 1.312-.576 1.388-1.061.025-.168.038-.394.038-.695v-.194l-2.902-.002c-.177 0-.4.005-.666.014M49.117 53.487a7.333 7.333 0 0 0-1.264-.097c-.478 0-.899.032-1.252.096l-.125.022-.735 2.985c-.12.56-.215 1.009-.285 1.35l-.283-1.355-.72-2.982-.125-.022a7.488 7.488 0 0 0-1.264-.098c-.477 0-.899.033-1.252.096l-.148.027-.65 8.243.158.04c.258.066.575.1.944.1.365.001.67-.02.906-.06l.154-.027.186-3.396c.032-.55.055-1.053.07-1.504l.897 3.717.127.021a6.958 6.958 0 0 0 1.996.002l.127-.021.912-3.723c.014.425.034.929.059 1.511l.194 3.397.153.027c.235.04.541.06.905.06.369.001.688-.032.944-.098l.159-.04-.64-8.244-.148-.027zM54.428 59.929l.01-1.34h2.525l.043-.138c.075-.25.113-.528.114-.825 0-.298-.039-.57-.114-.806l-.044-.135-1.925-.002c-.23 0-.429.002-.599.005l-.008-1.26 3.123.002.047-.126c.118-.309.177-.61.177-.896a3.86 3.86 0 0 0-.074-.775l-.031-.155-5.287-.004-.195.196-.006 6.915c0 .385.116.698.342.929.229.232.541.35.93.351l3.114.002c1.01 0 1.312-.577 1.388-1.062.025-.167.038-.394.038-.694v-.195l-2.902-.001c-.177 0-.398.004-.666.014M63.907 56.144c0 .248-.032.434-.095.554a.63.63 0 0 1-.265.265c-.126.067-.3.107-.52.117-.2.009-.432.015-.698.016l.002-1.899.185.002h.487c.626.001.904.292.904.945m2.11 4.13l-.35-.991c-.156-.45-.377-.786-.663-1a2.398 2.398 0 0 0 .738-.686c.14-.196.252-.42.336-.667.085-.248.128-.515.128-.791 0-.444-.074-.842-.22-1.184a2.331 2.331 0 0 0-.626-.866 2.637 2.637 0 0 0-.966-.51 4.285 4.285 0 0 0-1.226-.167c-.267 0-.633.003-1.099.011-.465.007-1.036.019-1.716.034l-.078.002-.195.193-.004 8.148.158.03c.251.05.575.075.961.075.385 0 .713-.025.973-.072l.16-.03.001-2.882h.285c.239 0 .415.047.522.139.118.101.215.256.288.453l.42 1.223c.143.429.3.726.479.91.193.196.46.296.794.296.308 0 .594-.058.853-.173.265-.119.467-.27.603-.451l.12-.158-.16-.116c-.224-.162-.397-.421-.516-.77M69.608 53.416c-.395 0-.723.024-.974.072l-.159.031-.004 8.286.157.032c.252.049.58.073.974.073.393 0 .724-.023.984-.072l.159-.03.005-8.288-.158-.03c-.26-.05-.591-.074-.984-.074M78.673 53.492l-6.087-.004-.032.155c-.05.239-.074.515-.076.82 0 .306.025.582.075.821l.031.156 1.92-.007-.005 6.378.16.03c.258.048.578.073.955.073.375 0 .703-.024.976-.072l.16-.029.005-5.718-.008-.662.89.01c.394 0 .68-.078.874-.238.203-.168.306-.429.306-.778 0-.308-.034-.577-.102-.798l-.042-.137zM83.36 58.316a3.957 3.957 0 0 0-.163-.004h-.859l-.2.004.194-.646c.183-.673.322-1.202.42-1.595.174.674.335 1.268.48 1.77l.129.471zm.604-4.806a6.158 6.158 0 0 0-1.138-.085c-.415 0-.783.024-1.096.071l-.119.018-2.646 8.024.142.227.063.023c.255.093.585.14.98.14.355.002.627-.023.833-.074l.107-.027.494-1.651c.088.003.197.005.323.005h1.663c.122 0 .226 0 .313-.003l.18.622c.128.438.285.732.48.898.202.174.523.258.981.258.375 0 .718-.082 1.019-.245l.141-.076-2.607-8.101-.113-.024z"/>
        <path fill="#FF8B34" d="M53.564 52.407c.117.2.256.346.41.433l.081.046 3.03-1.18-.008-.141a2.023 2.023 0 0 0-.277-.872c-.166-.293-.333-.503-.51-.645l-.107-.085-2.849 1.733.018.126c.026.196.097.394.212.585"/>
        <path fill="#82C9B7" d="M44.459 17.885c-.733.974-.466 1.936-.92 3.158 1.977-.916 2.781-1.222 3.424-2.172.704-1.007 1.202-2.027 2.316-2.827-2.24.023-3.998.75-4.82 1.84m6.354-.651c-1.004.523-1.25 1.406-2.035 2.253 1.11.323 1.775.96 2.907.89 1.318-.082 2.82-1.086 4.046-2.804-1.114-.486-2.184-.723-3.116-.723-.689 0-1.302.13-1.802.384m-12.902 3.632c-.569 1.078-.148 1.986-.408 3.264 1.809-1.217 2.556-1.642 3.04-2.677.532-1.111.869-2.194 1.846-3.163-2.213.376-3.832 1.372-4.478 2.576m5.877.768c1.171.556 1.614 1.454 2.689 1.759 1.209.353 2.67-.008 4.364-.927-1.18-.242-2.055-.86-3.16-1.316a2.844 2.844 0 0 0-1.078-.212c-.691 0-1.509.236-2.815.696m-11.865 3.201c-.39 1.155.166 1.984.111 3.285 1.592-1.477 2.262-2.022 2.58-3.118.355-1.181.51-2.296 1.316-3.407-2.117.716-3.56 1.948-4.007 3.24m5.92-.158c1.25.364 1.825 1.18 2.935 1.313 1.25.154 2.64-.425 4.162-1.6-1.203-.05-2.162-.53-3.327-.806a2.982 2.982 0 0 0-.661-.077c-.808 0-1.625.366-3.108 1.17m-11.211 5.008c-.207 1.203.473 1.937.619 3.228 1.347-1.706 1.921-2.347 2.065-3.483.161-1.223.142-2.347.763-3.572-1.981 1.041-3.213 2.478-3.447 3.827m5.82-1.073c1.29.16 1.99.876 3.106.837 1.258-.04 2.543-.835 3.861-2.236-1.198.138-2.224-.186-3.415-.27a3.389 3.389 0 0 0-.215-.007c-.99 0-1.754.457-3.337 1.676m-1.46 2.522c-1.101.101-1.774.65-3.246 2.195.57-.015 1.043.09 1.487.196.57.136 1.092.271 1.708.15 1.236-.233 2.383-1.215 3.467-2.802-1.163.321-2.227.157-3.416.261m-8.832 4.164c-.015 1.217.774 1.84 1.12 3.093 1.064-1.897 1.53-2.616 1.493-3.759-.034-1.228-.227-2.349.199-3.65-1.798 1.336-2.786 2.946-2.812 4.316m4.535.752c-1.073.271-1.648.918-2.862 2.676.58-.11 1.08-.072 1.55-.036.565.043 1.089.087 1.663-.121 1.182-.42 2.159-1.568 2.983-3.307-1.097.495-2.17.505-3.334.788m-8.074 5.483c.176 1.208 1.05 1.698 1.594 2.885.75-2.042 1.103-2.825.881-3.946-.22-1.212-.591-2.285-.369-3.633-1.567 1.594-2.293 3.34-2.106 4.694m4.599.044c-1.015.436-1.486 1.162-2.409 3.084 1.221-.436 2.171-.11 3.147-.65 1.108-.603 1.888-1.888 2.428-3.731-1.001.66-2.063.835-3.166 1.297m-7.111 6.67c.359 1.167 1.304 1.512 2.026 2.598.415-2.129.64-2.96.25-4.032-.41-1.164-.94-2.163-.937-3.531-1.296 1.824-1.74 3.662-1.34 4.965m4.55-.678c-.933.592-1.286 1.382-1.895 3.428 1.14-.622 2.128-.45 3.007-1.138.992-.767 1.564-2.158 1.81-4.062-.885.812-1.91 1.147-2.922 1.772m-5.972 7.707c.541 1.094 1.528 1.29 2.413 2.25.07-2.17.166-3.028-.394-4.025-.589-1.085-1.273-1.986-1.483-3.342-.991 2.004-1.14 3.89-.536 5.117m4.384-1.384c-.827.726-1.053 1.564-1.323 3.677 1.022-.789 2.024-.778 2.785-1.593.858-.913 1.202-2.372 1.143-4.294-.748.937-1.703 1.432-2.605 2.21m-4.68 8.542c.707.995 1.712 1.032 2.733 1.845-.264-2.15-.31-3.013-1.016-3.911-.75-.973-1.57-1.763-1.994-3.066-.664 2.133-.512 4.018.278 5.132m4.11-2.05c-.704.846-.788 1.713-.73 3.844.886-.945 1.881-1.087 2.505-2.011.703-1.036.815-2.538.453-4.427-.593 1.052-1.455 1.69-2.228 2.594m.453 6.508c-.562.942-.516 1.807-.129 3.908.736-1.069 1.689-1.364 2.164-2.371.536-1.132.413-2.633-.237-4.445-.423 1.129-1.175 1.89-1.798 2.908m-3.745 2.656c.852.875 1.855.758 2.987 1.401-.595-2.087-.77-2.93-1.612-3.71-.892-.845-1.82-1.495-2.443-2.716-.32 2.206.116 4.04 1.068 5.025m5.205 3.698c-.408 1.022-.228 1.87.49 3.874.558-1.164 1.454-1.605 1.764-2.678.353-1.198-.008-2.66-.93-4.343-.241 1.173-.867 2.044-1.324 3.147m-3.28 3.208c.983.73 1.948.463 3.174.919-.92-1.97-1.226-2.77-2.177-3.412-1.016-.702-2.037-1.2-2.842-2.31.023 2.234.752 3.98 1.845 4.803m5.725 2.836c-.24 1.073.071 1.879 1.097 3.75.367-1.239 1.182-1.815 1.317-2.92.16-1.241-.428-2.628-1.609-4.145-.05 1.198-.526 2.157-.805 3.315m-2.73 3.684c.644.34 1.226.33 1.862.32.435-.008.894-.014 1.416.09-1.22-1.801-1.649-2.548-2.69-3.032-1.114-.53-2.198-.863-3.173-1.83.382 2.198 1.375 3.81 2.585 4.452m6.099 1.9c-.066 1.097.37 1.849 1.677 3.54.166-1.285.88-1.981.84-3.093-.04-1.255-.836-2.533-2.24-3.846.137 1.191-.188 2.214-.277 3.4m-2.117 4.068c.704.235 1.287.124 1.93.012.417-.073.859-.146 1.375-.123-1.49-1.589-2.031-2.255-3.131-2.57-1.187-.349-2.313-.508-3.424-1.312.72 2.113 1.955 3.548 3.25 3.993m6.326.928c.103 1.096.653 1.764 2.204 3.232-.033-1.292.565-2.093.351-3.184-.237-1.232-1.223-2.372-2.82-3.45.326 1.154.166 2.212.265 3.402m-1.454 4.345c1.202.204 1.943-.473 3.243-.623-1.718-1.338-2.357-1.913-3.494-2.051-1.227-.161-2.362-.146-3.586-.768 1.045 1.975 2.484 3.203 3.837 3.442M73.43 18.871c-.707-1.007-1.206-2.027-2.318-2.827 2.239.023 3.994.75 4.822 1.84.733.975.46 1.937.92 3.159-1.978-.916-2.785-1.222-3.424-2.172zm-8.772-1.299c1.116-.486 2.185-.723 3.117-.723.688 0 1.302.13 1.8.384 1.008.523 1.249 1.406 2.038 2.253-1.111.323-1.775.96-2.908.89-1.319-.082-2.817-1.086-4.047-2.804zm15.187 3.88c-.532-1.111-.867-2.194-1.841-3.163 2.21.376 3.827 1.371 4.475 2.576.567 1.078.15 1.986.408 3.264-1.81-1.217-2.557-1.642-3.042-2.677zm-7.134-.303c.36-.143.7-.213 1.076-.213.69 0 1.507.237 2.813.697-1.169.556-1.612 1.454-2.687 1.759-1.206.353-2.67-.008-4.365-.927 1.182-.242 2.059-.86 3.163-1.316zm13.067 3.852c-.355-1.181-.511-2.296-1.317-3.407 2.116.716 3.562 1.948 4.007 3.24.39 1.155-.167 1.984-.11 3.285-1.595-1.477-2.262-2.023-2.58-3.118zm-7.002-1.418c.229-.051.445-.077.662-.077.807 0 1.626.366 3.106 1.17-1.245.364-1.821 1.18-2.932 1.313-1.247.154-2.637-.425-4.159-1.6 1.2-.05 2.162-.53 3.323-.806zm12.3 5.846c-.162-1.223-.143-2.347-.767-3.573 1.98 1.042 3.213 2.479 3.45 3.828.206 1.203-.475 1.937-.623 3.228-1.344-1.706-1.917-2.347-2.06-3.483zm-6.69-2.488c.073-.005.145-.006.215-.006.991 0 1.753.457 3.336 1.676-1.287.16-1.988.876-3.104.837-1.258-.04-2.544-.835-3.861-2.236 1.194.138 2.222-.186 3.415-.27zm5.06 6.734c-1.233-.234-2.38-1.216-3.462-2.804 1.162.322 2.223.158 3.415.262 1.101.101 1.769.65 3.246 2.195-.57-.015-1.044.09-1.489.196-.57.136-1.095.271-1.71.15zm6.17.956c.034-1.228.227-2.349-.197-3.65 1.795 1.336 2.784 2.946 2.81 4.316.015 1.217-.772 1.84-1.12 3.093-1.061-1.897-1.532-2.616-1.493-3.759zm-2.27 3.937c-1.186-.42-2.162-1.568-2.984-3.308 1.094.496 2.171.506 3.332.789 1.073.271 1.652.918 2.862 2.676-.58-.11-1.08-.073-1.55-.036-.566.043-1.089.087-1.66-.121zm5.947 1.903c.22-1.212.59-2.285.372-3.633 1.563 1.594 2.288 3.34 2.104 4.694-.175 1.208-1.05 1.698-1.595 2.885-.746-2.042-1.1-2.825-.881-3.946zm-2.861 3.539c-1.107-.603-1.888-1.888-2.43-3.731 1.004.66 2.062.835 3.165 1.297 1.016.436 1.491 1.162 2.409 3.084-1.218-.436-2.167-.11-3.144-.65zm5.574 2.802c.41-1.164.938-2.163.938-3.531 1.298 1.824 1.738 3.662 1.34 4.965-.363 1.167-1.309 1.512-2.027 2.598-.417-2.129-.64-2.96-.251-4.032zm-3.385 3.046c-.997-.767-1.566-2.158-1.81-4.062.886.812 1.909 1.147 2.92 1.772.936.592 1.286 1.382 1.897 3.428-1.139-.622-2.127-.45-3.007-1.138zm5.062 3.642c.588-1.085 1.27-1.986 1.483-3.342.99 2.004 1.142 3.89.536 5.117-.538 1.094-1.525 1.29-2.41 2.25-.074-2.17-.165-3.028.391-4.025zm-3.825 2.475c-.859-.913-1.2-2.372-1.144-4.294.75.937 1.702 1.432 2.608 2.21.826.726 1.051 1.564 1.323 3.677-1.027-.789-2.024-.778-2.787-1.593zm4.427 4.392c.747-.974 1.57-1.763 1.992-3.066.663 2.133.512 4.018-.277 5.132-.704.995-1.709 1.032-2.735 1.845.263-2.15.31-3.013 1.02-3.91zm-4.172 1.849c-.704-1.036-.812-2.539-.453-4.427.592 1.052 1.454 1.69 2.23 2.594.7.846.787 1.713.728 3.845-.888-.946-1.88-1.088-2.505-2.012zm-.71 6.212c-.54-1.132-.419-2.633.234-4.445.423 1.129 1.177 1.89 1.796 2.909.563.94.52 1.806.13 3.907-.736-1.069-1.689-1.364-2.16-2.371zm4.403-1.189c.893-.846 1.821-1.496 2.444-2.718.319 2.207-.116 4.041-1.068 5.026-.858.875-1.854.758-2.991 1.401.596-2.087.776-2.93 1.615-3.709zm-6.083 7.202c-.355-1.197.007-2.66.931-4.343.24 1.173.867 2.044 1.323 3.147.404 1.022.224 1.87-.493 3.874-.554-1.164-1.454-1.605-1.76-2.678zm4.534-.481c1.018-.702 2.04-1.199 2.845-2.31-.024 2.234-.754 3.98-1.851 4.803-.978.73-1.943.463-3.17.919.918-1.97 1.227-2.77 2.176-3.412zm-7.141 6.159c-.158-1.242.424-2.628 1.604-4.145.055 1.198.534 2.157.81 3.315.242 1.073-.073 1.879-1.097 3.75-.369-1.239-1.18-1.815-1.317-2.92zm4.558.232c1.113-.53 2.198-.863 3.17-1.83-.377 2.198-1.372 3.81-2.586 4.452-.643.34-1.225.33-1.86.32-.436-.008-.896-.014-1.417.09 1.222-1.8 1.652-2.548 2.693-3.032zm-8.028 4.97c.039-1.256.834-2.534 2.24-3.848-.136 1.192.186 2.215.274 3.4.066 1.097-.368 1.849-1.673 3.54-.168-1.285-.882-1.982-.841-3.093zm4.46.94c1.187-.349 2.31-.508 3.42-1.312-.718 2.113-1.955 3.548-3.249 3.993-.704.235-1.288.124-1.93.012-.417-.073-.86-.146-1.373-.123 1.488-1.589 2.033-2.255 3.133-2.57zm-8.71 3.657c.235-1.231 1.225-2.372 2.82-3.45-.325 1.154-.167 2.211-.264 3.402-.104 1.096-.652 1.764-2.205 3.232.035-1.292-.565-2.093-.35-3.184zm4.26 1.623c1.228-.161 2.364-.146 3.59-.768-1.048 1.975-2.489 3.203-3.84 3.442-1.205.204-1.946-.473-3.24-.623 1.714-1.338 2.357-1.913 3.49-2.051z"/>
    </g>
</svg>
