<svg xmlns="http://www.w3.org/2000/svg" width="71" height="61" viewBox="0 0 71 61">
    <g fill="#FF8B34" fill-rule="nonzero">
        <path d="M41.477 21.334c-3.428 0-5.997-2.567-5.997-5.998V6.308C35.48 2.844 38.073 0 41.477 0H59.75c3.415 0 6.164 2.862 6.164 6.307v9.028c0 3.417-2.72 5.998-6.164 5.998h-8.869l-5.144 5.16c-1.726 1.603-4.17.466-4.17-1.858v-3.302h-.091zm7.697-2.6a1.52 1.52 0 0 1 1.077-.448h9.5c1.8 0 3.12-1.254 3.12-2.95V6.308c0-1.788-1.413-3.26-3.12-3.26H41.477c-1.658 0-2.953 1.42-2.953 3.26v9.028c0 1.746 1.205 2.95 2.953 2.95h1.612c.84 0 1.522.683 1.522 1.524v3.502l4.563-4.578z" opacity=".5"/>
        <path d="M23.9 17.868a3.285 3.285 0 0 0-3.283-3.288 3.285 3.285 0 0 0-3.283 3.288c0 2.207 1.82 4.844 3.283 4.844 1.463 0 3.283-2.637 3.283-4.844zm3.043 0c0 3.701-2.892 7.891-6.326 7.891-3.435 0-6.327-4.19-6.327-7.891a6.33 6.33 0 0 1 6.327-6.335 6.33 6.33 0 0 1 6.326 6.335zM2.002 60.953a1.523 1.523 0 0 1 0-3.048H68.96a1.523 1.523 0 0 1 0 3.048H2.002zM32.445 53.258a1.522 1.522 0 0 1-3.03.278l-1.457-15.917-.006-.139a7.367 7.367 0 0 0-3.534-6.272c-2.291 2.392-5.312 2.392-7.603 0a7.367 7.367 0 0 0-3.534 6.272l-.006.14-1.044 11.404a2.609 2.609 0 0 0 2.596 2.849h7.128a1.523 1.523 0 0 1 0 3.048h-7.128c-3.324 0-5.93-2.86-5.627-6.175l1.038-11.338c.029-4.187 2.583-7.92 6.393-9.518a1.52 1.52 0 0 1 1.84.539c1.404 2.034 2.887 2.034 4.29 0a1.52 1.52 0 0 1 1.84-.54c3.81 1.6 6.365 5.332 6.394 9.519l1.45 15.85z"/>
    </g>
</svg>
