<svg xmlns="http://www.w3.org/2000/svg" xmlns:xlink="http://www.w3.org/1999/xlink" width="494" height="803" viewBox="0 0 494 803">
    <defs>
        <linearGradient id="a" x1="50%" x2="50%" y1="0%" y2="100%">
            <stop offset="0%" stop-color="#ABB2C4" stop-opacity=".239"/>
            <stop offset="100%" stop-color="#737A91" stop-opacity=".332"/>
        </linearGradient>
        <filter id="b" width="130.2%" height="117%" x="-15.1%" y="-8.5%" filterUnits="objectBoundingBox">
            <feGaussianBlur in="SourceGraphic" stdDeviation="20.147"/>
        </filter>
        <linearGradient id="e" x1="0%" y1="0%" y2="100%">
            <stop offset="0%" stop-color="#FFF"/>
            <stop offset="100%" stop-color="#FEFEFE"/>
        </linearGradient>
        <path id="d" d="M366.68 166.758h6.448a2.82 2.82 0 0 1 2.82 2.82v43.5a2.82 2.82 0 0 1-2.82 2.82h-6.448a2.82 2.82 0 0 1-2.82-2.82v-43.5a2.82 2.82 0 0 1 2.82-2.82zM36.265 115.602h6.447a2.82 2.82 0 0 1 2.82 2.821v21.749a2.82 2.82 0 0 1-2.82 2.82h-6.447a2.82 2.82 0 0 1-2.82-2.82v-21.749a2.82 2.82 0 0 1 2.82-2.82zm0 51.156h6.447a2.82 2.82 0 0 1 2.82 2.82v43.5a2.82 2.82 0 0 1-2.82 2.82h-6.447a2.82 2.82 0 0 1-2.82-2.82v-43.5a2.82 2.82 0 0 1 2.82-2.82zm0 62.836h6.447a2.82 2.82 0 0 1 2.82 2.82v43.5a2.82 2.82 0 0 1-2.82 2.82h-6.447a2.82 2.82 0 0 1-2.82-2.82v-43.5a2.82 2.82 0 0 1 2.82-2.82z"/>
        <filter id="c" width="149.2%" height="203.2%" x="-24.6%" y="-38.1%" filterUnits="objectBoundingBox">
            <feMorphology in="SourceAlpha" operator="dilate" radius="1.209" result="shadowSpreadOuter1"/>
            <feOffset dy="22" in="shadowSpreadOuter1" result="shadowOffsetOuter1"/>
            <feGaussianBlur in="shadowOffsetOuter1" result="shadowBlurOuter1" stdDeviation="24"/>
            <feComposite in="shadowBlurOuter1" in2="SourceAlpha" operator="out" result="shadowBlurOuter1"/>
            <feColorMatrix in="shadowBlurOuter1" values="0 0 0 0 0 0 0 0 0 0 0 0 0 0 0 0 0 0 0.132840806 0"/>
        </filter>
        <path id="f" d="M89.935 22.968h225.493c17.962 0 24.475 1.87 31.042 5.382 6.566 3.512 11.72 8.665 15.231 15.232 3.512 6.566 5.382 13.08 5.382 31.041v559.27c0 17.963-1.87 24.476-5.382 31.042-3.511 6.567-8.665 11.72-15.231 15.232-6.567 3.512-13.08 5.382-31.042 5.382H89.935c-17.962 0-24.475-1.87-31.041-5.382-6.567-3.512-11.72-8.665-15.232-15.232-3.512-6.566-5.382-13.08-5.382-31.041V74.624c0-17.962 1.87-24.476 5.382-31.042 3.512-6.567 8.665-11.72 15.232-15.232 6.566-3.512 13.08-5.382 31.041-5.382z"/>
        <filter id="g" width="102.1%" height="101.1%" x="-1.1%" y="-.5%" filterUnits="objectBoundingBox">
            <feGaussianBlur in="SourceAlpha" result="shadowBlurInner1" stdDeviation="2"/>
            <feOffset dy="-1" in="shadowBlurInner1" result="shadowOffsetInner1"/>
            <feComposite in="shadowOffsetInner1" in2="SourceAlpha" k2="-1" k3="1" operator="arithmetic" result="shadowInnerInner1"/>
            <feColorMatrix in="shadowInnerInner1" values="0 0 0 0 0.9506 0 0 0 0 0.96334 0 0 0 0 0.98 0 0 0 1 0"/>
        </filter>
        <path id="i" d="M209.532 673.864c10.46 0 18.938-8.93 18.938-19.946 0-11.016-8.479-19.946-18.938-19.946-10.46 0-18.939 8.93-18.939 19.946 0 11.016 8.48 19.946 18.939 19.946z"/>
        <filter id="h" width="147.5%" height="145.1%" x="-23.8%" y="-22.6%" filterUnits="objectBoundingBox">
            <feOffset in="SourceAlpha" result="shadowOffsetOuter1"/>
            <feGaussianBlur in="shadowOffsetOuter1" result="shadowBlurOuter1" stdDeviation="3"/>
            <feColorMatrix in="shadowBlurOuter1" values="0 0 0 0 0 0 0 0 0 0 0 0 0 0 0 0 0 0 0.187216938 0"/>
        </filter>
        <linearGradient id="j" x1="50%" x2="50%" y1="0%" y2="100%">
            <stop offset="0%" stop-color="#D1D1D3"/>
            <stop offset="100%" stop-color="#FCFDFF"/>
        </linearGradient>
        <ellipse id="k" cx="2.853" cy="2.618" rx="2.853" ry="2.618"/>
        <filter id="l" width="170.1%" height="176.4%" x="-35.1%" y="-38.2%" filterUnits="objectBoundingBox">
            <feGaussianBlur in="SourceAlpha" result="shadowBlurInner1" stdDeviation="1"/>
            <feOffset dx="-1" dy="-1" in="shadowBlurInner1" result="shadowOffsetInner1"/>
            <feComposite in="shadowOffsetInner1" in2="SourceAlpha" k2="-1" k3="1" operator="arithmetic" result="shadowInnerInner1"/>
            <feColorMatrix in="shadowInnerInner1" values="0 0 0 0 0 0 0 0 0 0 0 0 0 0 0 0 0 0 0.344061368 0"/>
        </filter>
        <path id="m" d="M14.777 1.208h27.936a1.611 1.611 0 1 1 0 3.222H14.777a1.611 1.611 0 0 1 0-3.222z"/>
        <filter id="n" width="112.8%" height="224.1%" x="-6.4%" y="-62.1%" filterUnits="objectBoundingBox">
            <feGaussianBlur in="SourceAlpha" result="shadowBlurInner1" stdDeviation="1"/>
            <feOffset dx="1" dy="1" in="shadowBlurInner1" result="shadowOffsetInner1"/>
            <feComposite in="shadowOffsetInner1" in2="SourceAlpha" k2="-1" k3="1" operator="arithmetic" result="shadowInnerInner1"/>
            <feColorMatrix in="shadowInnerInner1" values="0 0 0 0 0 0 0 0 0 0 0 0 0 0 0 0 0 0 0.344061368 0"/>
        </filter>
    </defs>
    <g fill="none" fill-rule="evenodd" transform="translate(47 45)">
        <rect width="399.722" height="711.338" fill="url(#a)" filter="url(#b)" opacity=".571" rx="40.295"/>
        <use fill="#000" filter="url(#c)" xlink:href="#d"/>
        <path fill="url(#e)" stroke="#000" stroke-opacity=".04" stroke-width="1.209" d="M366.68 166.153h6.448a3.425 3.425 0 0 1 3.425 3.425v43.5a3.425 3.425 0 0 1-3.425 3.425h-6.448a3.425 3.425 0 0 1-3.425-3.425v-43.5a3.425 3.425 0 0 1 3.425-3.425zM36.265 114.998h6.447a3.425 3.425 0 0 1 3.425 3.425v21.749a3.425 3.425 0 0 1-3.425 3.425h-6.447a3.425 3.425 0 0 1-3.425-3.425v-21.749a3.425 3.425 0 0 1 3.425-3.425zm0 51.155h6.447a3.425 3.425 0 0 1 3.425 3.425v43.5a3.425 3.425 0 0 1-3.425 3.425h-6.447a3.425 3.425 0 0 1-3.425-3.425v-43.5a3.425 3.425 0 0 1 3.425-3.425zm0 62.836h6.447a3.425 3.425 0 0 1 3.425 3.425v43.5a3.425 3.425 0 0 1-3.425 3.425h-6.447a3.425 3.425 0 0 1-3.425-3.425v-43.5a3.425 3.425 0 0 1 3.425-3.425z"/>
        <use fill="#FFF" xlink:href="#f"/>
        <use fill="#000" filter="url(#g)" xlink:href="#f"/>
        <use stroke="#000" stroke-opacity=".03" stroke-width="2.015" xlink:href="#f"/>
        <use fill="#000" filter="url(#h)" xlink:href="#i"/>
        <use fill="#FFF" xlink:href="#i"/>
        <path fill="url(#j)" d="M204.696 46.339c1.78 0 3.224-1.624 3.224-3.627 0-2.003-1.443-3.626-3.224-3.626-1.78 0-3.223 1.623-3.223 3.626s1.443 3.627 3.223 3.627z"/>
        <g opacity=".6">
            <g opacity=".75" transform="translate(178.505 53.572)">
                <use fill="#BFC0C5" xlink:href="#k"/>
                <use fill="#000" filter="url(#l)" xlink:href="#k"/>
                <ellipse cx="2.853" cy="2.618" stroke="#7D7D7D" stroke-opacity=".568" stroke-width=".5" rx="3.103" ry="2.868"/>
            </g>
            <g transform="translate(178.505 53.572)">
                <use fill="#BFC0C5" xlink:href="#m"/>
                <use fill="#000" filter="url(#n)" xlink:href="#m"/>
                <path stroke="#7D7D7D" stroke-opacity=".568" stroke-width=".5" d="M14.777.958h27.936a1.861 1.861 0 1 1 0 3.723H14.777a1.861 1.861 0 1 1 0-3.723z"/>
            </g>
        </g>
        <path fill="#F5F7F8" d="M52 81h302v537H52z"/>
    </g>
</svg>
