<svg xmlns="http://www.w3.org/2000/svg" width="60" height="61" viewBox="0 0 60 61">
    <g fill="#0F1820" fill-rule="nonzero">
        <path d="M27.433 54.012c0 .695-.56 1.258-1.25 1.258s-1.25-.563-1.25-1.258V34.014c0-.695.56-1.258 1.25-1.258s1.25.563 1.25 1.258v19.998zM22.433 54.012c0 .695-.56 1.258-1.25 1.258s-1.25-.563-1.25-1.258V34.014c0-.695.56-1.258 1.25-1.258s1.25.563 1.25 1.258v19.998zM14.932 54.012c0 .695-.56 1.258-1.25 1.258s-1.25-.563-1.25-1.258V34.014c0-.695.56-1.258 1.25-1.258s1.25.563 1.25 1.258v19.998zM9.931 54.012c0 .695-.56 1.258-1.25 1.258s-1.25-.563-1.25-1.258V34.014c0-.695.56-1.258 1.25-1.258s1.25.563 1.25 1.258v19.998zM39.934 54.012c0 .695-.56 1.258-1.25 1.258s-1.25-.563-1.25-1.258V34.014c0-.695.56-1.258 1.25-1.258s1.25.563 1.25 1.258v19.998zM34.934 54.012c0 .695-.56 1.258-1.25 1.258s-1.25-.563-1.25-1.258V34.014c0-.695.56-1.258 1.25-1.258s1.25.563 1.25 1.258v19.998zM52.435 54.012c0 .695-.56 1.258-1.25 1.258s-1.25-.563-1.25-1.258V34.014c0-.695.56-1.258 1.25-1.258s1.25.563 1.25 1.258v19.998zM47.435 54.012c0 .695-.56 1.258-1.25 1.258s-1.25-.563-1.25-1.258V34.014c0-.695.56-1.258 1.25-1.258s1.25.563 1.25 1.258v19.998z" opacity=".8"/>
        <path d="M58.397 57.859c.69 0 1.25.563 1.25 1.258 0 .694-.56 1.257-1.25 1.257H1.532c-.69 0-1.25-.563-1.25-1.257 0-.695.56-1.258 1.25-1.258h56.865zM58.397 27.67c.69 0 1.25.563 1.25 1.258 0 .695-.56 1.258-1.25 1.258H1.532c-.69 0-1.25-.563-1.25-1.258 0-.695.56-1.258 1.25-1.258h56.865zM20.278 23.727c0 .694-.56 1.258-1.25 1.258s-1.25-.564-1.25-1.258c0-6.324 5.478-11.409 12.187-11.409 6.708 0 12.186 5.085 12.186 11.409 0 .694-.56 1.258-1.25 1.258s-1.25-.564-1.25-1.258c0-4.888-4.316-8.893-9.687-8.893-5.37 0-9.686 4.005-9.686 8.893z" opacity=".6"/>
        <path d="M31.215 13.576c0 .695-.56 1.258-1.25 1.258s-1.25-.563-1.25-1.258V1.273c0-.695.56-1.258 1.25-1.258h7.01c.69 0 1.25.563 1.25 1.258 0 .694-.56 1.257-1.25 1.257h-5.76v11.046z" opacity=".4"/>
    </g>
</svg>
