<svg xmlns="http://www.w3.org/2000/svg" width="63" height="40" viewBox="0 0 63 40">
    <g fill="#00CCB1" fill-rule="nonzero" opacity=".3">
        <path d="M8.785.867c-7.308 2.373-2.956 9.771-2.956 9.771S11 8.703 8.785.867zM8.04 20.218c.214-.106 5.321-2.625 3.575-8.81 0 0-5.273.403-4.26 6.491-.886-2.252-2.793-5.428-6.651-6.112-.442 12.023 7.337 8.431 7.337 8.431zM12.723 29.432c.092-.077 4.768-4.04 1.254-10.109 0 0-5.207 1.928-2.969 7.716-1.582-1.756-4.226-3.75-7.82-3.205 2.922 11.563 9.424 5.7 9.535 5.598zM18.51 25.737s-4.324 3.798-.206 8.436c-2.26-.865-5.765-1.492-8.967.945 7.904 9.247 11.365.273 11.365.273l-.002-.002c.713-1.66 2.045-6.12-2.19-9.652zM54.637.867c7.308 2.373 2.956 9.771 2.956 9.771s-5.17-1.935-2.956-9.771zM55.382 20.218l.001-.003c-.215-.103-5.322-2.622-3.576-8.807 0 0 5.273.403 4.26 6.491.886-2.252 2.794-5.428 6.652-6.112.442 12.023-7.337 8.431-7.337 8.431zM50.698 29.432c-.091-.077-4.767-4.04-1.254-10.109 0 0 5.208 1.928 2.97 7.716 1.581-1.756 4.225-3.75 7.82-3.205-2.921 11.563-9.423 5.7-9.536 5.598zM44.913 25.737s4.323 3.798.205 8.436c2.26-.865 5.766-1.492 8.967.945-7.905 9.247-11.365.273-11.365.273l.001-.002c-.712-1.66-2.043-6.12 2.192-9.652z"/>
    </g>
</svg>
