<svg xmlns="http://www.w3.org/2000/svg" width="60" height="82" viewBox="0 0 60 82">
    <g fill="#FF8B34" fill-rule="nonzero">
        <path d="M23.904 62.121a1.716 1.716 0 0 1 2.197-1.02 1.707 1.707 0 0 1 1.025 2.189l-6.168 16.886c-.454 1.244-2.095 1.522-2.937.498l-5.675-6.909-8.804 1.657c-1.305.246-2.383-1.018-1.929-2.263l6.488-17.761a1.716 1.716 0 0 1 2.197-1.021 1.707 1.707 0 0 1 1.024 2.19L5.865 71.507l6.844-1.288a1.718 1.718 0 0 1 1.645.596l4.412 5.372 5.138-14.067zM42.072 80.674c-.842 1.024-2.483.746-2.937-.498L32.967 63.29a1.707 1.707 0 0 1 1.025-2.19 1.716 1.716 0 0 1 2.197 1.021l5.137 14.067 4.413-5.372a1.718 1.718 0 0 1 1.645-.596l6.844 1.288-5.457-14.942a1.707 1.707 0 0 1 1.024-2.19 1.716 1.716 0 0 1 2.197 1.022l6.488 17.761c.454 1.245-.624 2.509-1.93 2.263l-8.803-1.657-5.675 6.909z" opacity=".4"/>
        <path d="M55.505 30.143l3.81 6.577a1.705 1.705 0 0 1-.627 2.333l-6.6 3.797v7.595c0 .944-.768 1.708-1.715 1.708h-7.62l-3.811 6.577a1.718 1.718 0 0 1-2.342.626L30 55.559l-6.6 3.797a1.718 1.718 0 0 1-2.342-.626l-3.81-6.577H9.627a1.711 1.711 0 0 1-1.715-1.708V42.85l-6.6-3.797a1.705 1.705 0 0 1-.627-2.333l3.81-6.577-3.81-6.578a1.705 1.705 0 0 1 .627-2.333l6.6-3.798V9.84c0-.943.768-1.708 1.715-1.708h7.62l3.811-6.577A1.718 1.718 0 0 1 23.4.929L30 4.727 36.6.93a1.718 1.718 0 0 1 2.342.626l3.81 6.577h7.621c.947 0 1.715.765 1.715 1.708v7.594l6.6 3.798c.82.472 1.1 1.516.627 2.333l-3.81 6.578zm-.016 6.805l-3.448-5.951a1.703 1.703 0 0 1 0-1.709l3.448-5.951-5.973-3.437a1.707 1.707 0 0 1-.857-1.48v-6.872h-6.896a1.715 1.715 0 0 1-1.485-.854L36.83 4.742 30.857 8.18a1.72 1.72 0 0 1-1.714 0L23.17 4.742l-3.448 5.952a1.715 1.715 0 0 1-1.484.854H11.34v6.873c0 .61-.327 1.174-.857 1.48L4.51 23.336l3.449 5.951c.306.529.306 1.18 0 1.709L4.51 36.948l5.973 3.437c.53.305.857.869.857 1.48v6.872h6.897c.612 0 1.178.325 1.484.854l3.448 5.952 5.973-3.436a1.72 1.72 0 0 1 1.714 0l5.973 3.436 3.448-5.952a1.715 1.715 0 0 1 1.485-.854h6.896v-6.873c0-.61.327-1.174.857-1.48l5.973-3.436z"/>
        <path d="M30 47.52c-9.63 0-17.438-7.78-17.438-17.377 0-9.598 7.807-17.378 17.438-17.378 9.63 0 17.438 7.78 17.438 17.378C47.438 39.74 39.63 47.52 30 47.52zm0-3.417c7.737 0 14.01-6.25 14.01-13.96 0-7.71-6.273-13.961-14.01-13.961s-14.01 6.25-14.01 13.96c0 7.71 6.273 13.961 14.01 13.961z" opacity=".4"/>
    </g>
</svg>
