<svg xmlns="http://www.w3.org/2000/svg" width="62" height="58" viewBox="0 0 62 58">
    <g fill="#64757D" fill-rule="nonzero">
        <path d="M58.56 51.363V19.216c0-2.267-1.821-4.104-4.068-4.104H7.429c-2.246 0-4.068 1.837-4.068 4.104v32.147c0 2.266 1.822 4.103 4.069 4.103h47.062c2.247 0 4.068-1.837 4.068-4.103zm2.5 0c0 3.659-2.94 6.625-6.568 6.625H7.429c-3.627 0-6.568-2.966-6.568-6.625V19.216c0-3.66 2.94-6.625 6.569-6.625h47.062c3.627 0 6.568 2.966 6.568 6.625v32.147z"/>
        <path fill-opacity=".4" d="M20.98 8.807c0 .697-.56 1.261-1.25 1.261s-1.25-.564-1.25-1.26V7.444c0-4.125 3.476-7.44 7.731-7.44h9.469c4.255 0 7.731 3.315 7.731 7.44v1.362c0 .697-.56 1.261-1.25 1.261s-1.25-.564-1.25-1.26V7.444c0-2.7-2.327-4.918-5.231-4.918h-9.469c-2.905 0-5.231 2.218-5.231 4.918v1.362z"/>
        <path d="M34.669 30.315c-.69 0-1.25-.564-1.25-1.26 0-.697.56-1.261 1.25-1.261H59.81c.69 0 1.25.564 1.25 1.26 0 .697-.56 1.261-1.25 1.261H34.668zM2.111 30.315c-.69 0-1.25-.564-1.25-1.26 0-.697.56-1.261 1.25-1.261H27.13c.69 0 1.25.564 1.25 1.26 0 .697-.56 1.261-1.25 1.261H2.112z" opacity=".4"/>
        <path d="M33.419 27.665H28.38v5.083h5.039v-5.083zm.047 7.605h-5.134a2.464 2.464 0 0 1-2.452-2.475v-5.178a2.463 2.463 0 0 1 2.453-2.473h5.133a2.463 2.463 0 0 1 2.453 2.473v5.215a2.463 2.463 0 0 1-2.453 2.438z"/>
    </g>
</svg>
