<svg xmlns="http://www.w3.org/2000/svg" width="57" height="57" viewBox="0 0 57 57">
    <g fill="none" fill-rule="evenodd" stroke-linecap="round" stroke-linejoin="round" stroke-width="2.5">
        <path stroke="#FF8B34" d="M48.667 41.333a7.334 7.334 0 1 1-14.668 0 7.334 7.334 0 0 1 14.668 0zM46.833 46.833l8.25 8.25"/>
        <path stroke="#FFC599" d="M32.167 8.333a4.583 4.583 0 1 1-9.167 0 4.583 4.583 0 1 1 9.167 0z"/>
        <path stroke="#FF8B34" d="M15.667 55.083l1.342-17.966h.87c1.427 0 2.529-1.353 2.353-2.886l-1.518-13.15c-.297-2.569-2.314-4.498-4.705-4.498H8.157c-2.39 0-4.407 1.929-4.704 4.498L1.935 34.23c-.176 1.533.926 2.886 2.352 2.886h.871L6.5 55.083h9.167zM15.667 6.5a4.583 4.583 0 1 1-9.167 0 4.583 4.583 0 1 1 9.167 0z"/>
        <path stroke="#FFC599" d="M22.083 40.417l.966 12.833h9.118l.196-2.618M35.833 31.25l-1.13-8.897c-.287-2.248-2.063-3.936-4.37-3.936h-5.5c-.533 0-1.043.099-1.523.265"/>
    </g>
</svg>
