<svg xmlns="http://www.w3.org/2000/svg" width="61" height="59" viewBox="0 0 61 59">
    <g fill="#0F1820" fill-rule="nonzero">
        <path d="M40.009 5.242a1.25 1.25 0 0 1-2.5 0v-3.75a1.25 1.25 0 0 1 2.5 0v3.75zM22.507 5.242a1.25 1.25 0 0 1-2.5 0v-3.75a1.25 1.25 0 0 1 2.5 0v3.75zM17.668 49.877a1.25 1.25 0 0 1 2.433.576l-1.756 7.41a1.25 1.25 0 0 1-2.433-.577l1.756-7.41zM39.911 50.453a1.25 1.25 0 0 1 2.433-.576l1.756 7.409a1.25 1.25 0 0 1-2.432.577l-1.757-7.41z" opacity=".5"/>
        <path d="M2.509 6.492v37.5h55v-37.5h-55zm-1.25-2.5h57.5c.69 0 1.25.56 1.25 1.25v40c0 .69-.56 1.25-1.25 1.25h-57.5c-.69 0-1.25-.56-1.25-1.25v-40c0-.69.56-1.25 1.25-1.25z" opacity=".6"/>
        <path d="M24.722 24.425l.076-.038c4.807-2.419 4.566-2.3 4.992-2.3.82 0 1.562.496 1.88 1.267 2.967 7.417-2.507 15.507-10.481 15.507-6.798 0-12.05-5.953-11.231-12.672.545-4.481 3.36-7.66 7.232-9.186 1.523-.6 3.104-.88 4.379-.793 1.666.113 2.926.867 2.74 2.38l-.023.128-1.542 6.705 1.978-.998zm4.18.708c-.753.37-1.768.877-2.98 1.487l-.076.038a1111.554 1111.554 0 0 0-4.351 2.203c-.946.481-2.023-.36-1.786-1.394l2.007-8.727a3.165 3.165 0 0 0-.316-.036c-.886-.06-2.1.154-3.293.625-3.07 1.21-5.241 3.661-5.667 7.162-.638 5.232 3.454 9.87 8.749 9.87 6.018 0 10.21-5.928 8.356-11.542l-.643.314z"/>
        <path d="M34.023 17.64l.002.005c.167.398.172.849.008 1.255-.27.667-.981.998-4 2.248-.87.36-1.7.685-2.334.912-.353.127-.645.223-.873.287-.145.04-.27.07-.388.087-.408.062-.663.055-1.067-.249-.36-.277-.456-.543-.514-.91a2.957 2.957 0 0 1-.03-.42c-.004-.237.009-.538.036-.908.044-.618.128-1.43.244-2.397.03-.247.06-.502.093-.764.125-.992.389-2.931.363-2.729.14-1.131 1.079-1.492 2.13-1.404.645.055 1.408.293 2.17.671 1.793.89 3.346 2.4 4.16 4.317zm-5.271-2.077a5.089 5.089 0 0 0-.827-.329 253.318 253.318 0 0 0-.336 2.612 68.619 68.619 0 0 0-.18 1.656 62.1 62.1 0 0 0 1.667-.664 58.949 58.949 0 0 0 2.248-.98c-.616-.982-1.54-1.782-2.572-2.295zm-.72-1.127a.993.993 0 0 0 .012-.07l-.011.07z"/>
        <path d="M38.759 33.992a1.25 1.25 0 0 1 0-2.5h9.925a1.25 1.25 0 0 1 0 2.5H38.76zM38.759 26.492a1.25 1.25 0 0 1 0-2.5h9.925a1.25 1.25 0 0 1 0 2.5H38.76zM38.759 18.991a1.25 1.25 0 0 1 0-2.5h9.925a1.25 1.25 0 0 1 0 2.5H38.76z" opacity=".5"/>
    </g>
</svg>
