<svg xmlns="http://www.w3.org/2000/svg" width="62" height="76" viewBox="0 0 62 76">
    <g fill="#FF8B34" fill-rule="nonzero">
        <path d="M50.22.42c6.13 0 11.115 4.886 11.115 10.93a10.78 10.78 0 0 1-2.622 7.048l-17.057 19.27a1.576 1.576 0 0 1-2.375-.015L22.294 17.966l-.062-.077a10.754 10.754 0 0 1-1.87-9.155C21.576 3.88 26.007.42 31.142.42c3.833 0 7.438 1.915 9.538 4.855C42.78 2.336 46.387.42 50.22.42zm-9.73 33.795l15.845-17.9a7.594 7.594 0 0 0 1.842-4.964c0-4.28-3.554-7.764-7.956-7.764-3.69 0-7.097 2.442-8.024 5.688-.437 1.532-2.601 1.53-3.036-.001-.922-3.244-4.329-5.687-8.018-5.687-3.688 0-6.856 2.474-7.72 5.92a7.581 7.581 0 0 0 1.293 6.426L40.49 34.215z"/>
        <path d="M42.165 60.16c.872 0 1.579.71 1.579 1.584 0 .874-.707 1.583-1.579 1.583H13.744a1.581 1.581 0 0 1-1.579-1.583c0-.874.707-1.583 1.579-1.583h28.421zM42.165 50.66c.872 0 1.579.71 1.579 1.584 0 .874-.707 1.583-1.579 1.583H13.744a1.581 1.581 0 0 1-1.579-1.583c0-.874.707-1.583 1.579-1.583h28.421zM26.376 41.16c.872 0 1.579.71 1.579 1.584 0 .874-.707 1.583-1.58 1.583H13.745a1.581 1.581 0 0 1-1.579-1.583c0-.874.707-1.583 1.579-1.583h12.632z" opacity=".4"/>
        <path d="M51.434 36.473c0-.874.707-1.583 1.579-1.583s1.579.709 1.579 1.583v35.694a3.793 3.793 0 0 1-3.8 3.789H4.679a3.792 3.792 0 0 1-3.797-3.789V13.194a3.792 3.792 0 0 1 3.797-3.787h10.766c.872 0 1.578.708 1.578 1.583 0 .874-.706 1.583-1.578 1.583H4.679a.63.63 0 0 0-.64.621v58.973c0 .341.283.622.64.622h46.113a.63.63 0 0 0 .642-.622V36.473z" opacity=".7"/>
    </g>
</svg>
