<svg xmlns="http://www.w3.org/2000/svg" width="78" height="78" viewBox="0 0 78 78">
    <g fill="#FF8B34" fill-rule="nonzero">
        <path d="M11.455 11.49c15.188-15.188 39.894-15.188 55.082 0 15.188 15.188 15.189 39.896.002 55.083-15.187 15.187-39.896 15.186-55.084-.002-15.187-15.188-15.187-39.894 0-55.081zm2.358 2.357c-13.886 13.886-13.886 36.481 0 50.367C27.699 78.1 50.296 78.1 64.182 64.216c13.885-13.886 13.884-36.483-.002-50.37-13.886-13.885-36.482-13.885-50.367 0z" opacity=".4"/>
        <path d="M60.77 29.635c2.897.063 4.087 3.75 1.769 5.495l-11.314 8.487 4.11 13.43c.854 2.77-2.272 5.045-4.65 3.412l-11.688-8.047-11.685 8.045c-2.374 1.643-5.503-.641-4.653-3.406l4.108-13.433-11.317-8.49c-2.314-1.746-1.125-5.43 1.773-5.493l14.228-.288 4.665-13.277c.95-2.72 4.804-2.728 5.761-.003l4.667 13.28 14.226.288zm-15.45 3.022a1.667 1.667 0 0 1-1.538-1.114l-4.785-13.618-4.785 13.618c-.23.656-.843 1.1-1.538 1.114l-14.57.295 11.599 8.701c.561.421.799 1.15.593 1.82l-4.215 13.785 11.97-8.242a1.667 1.667 0 0 1 1.891 0l11.971 8.241-4.218-13.783c-.205-.671.032-1.4.594-1.82l11.599-8.702-14.567-.295z"/>
    </g>
</svg>
