<svg xmlns="http://www.w3.org/2000/svg" width="37" height="39" viewBox="0 0 37 39">
    <g fill="none" fill-rule="evenodd" stroke="#64757D" stroke-linecap="round" stroke-linejoin="round" stroke-width="1.5" opacity=".574">
        <path d="M24.497 37.952H12.33l1.012-3.687h10.144zM8.281 19.096c-2.766.746-5.778-1.576-6.726-5.186-.948-3.609.526-7.14 3.291-7.885a4.17 4.17 0 0 1 2.27.037M28.545 19.096c2.766.746 5.778-1.576 6.726-5.186.948-3.61-.525-7.14-3.29-7.885a4.176 4.176 0 0 0-2.298.045"/>
        <path d="M28.489 1.308H8.338c-.655 0-1.186.538-1.186 1.202v11.142c0 6.807 5.051 12.344 11.26 12.344 6.21 0 11.262-5.537 11.262-12.344V2.51c0-.664-.53-1.202-1.185-1.202z"/>
        <path d="M20.003 10.433c-1.832-5.285-1.393-5.159-3.182 0-5.596.114-5.317-.25-.986 3.042-1.618 5.36-1.891 4.994 2.577 1.877 4.587 3.2 4.155 3.347 2.577-1.877 4.46-3.389 4.447-2.932-.986-3.042zM16.882 34.301v-5.504M19.944 34.301v-5.504"/>
    </g>
</svg>
