<svg xmlns="http://www.w3.org/2000/svg" width="32" height="32" viewBox="0 0 32 32">
    <g fill="none" fill-rule="evenodd" transform="translate(1 1)">
        <circle cx="15" cy="15" r="15" stroke="#FF8B34" stroke-width="2" opacity=".3"/>
        <path fill="#FF8B34" d="M21.239 14.109v-1.733h-1.258v1.733H18.17v1.238h1.811v1.782h1.258v-1.782H23v-1.238h-1.761zm-9.157-.1v1.981l2.747-.002c-.43 1.283-1.1 1.982-2.747 1.982A2.952 2.952 0 0 1 9.113 15c0-1.64 1.301-2.97 2.969-2.97.881 0 1.45.305 1.973.73.418-.412.383-.47 1.446-1.459A5.11 5.11 0 0 0 12.081 10C9.276 10 7 12.239 7 15s2.275 5 5.082 5c4.195 0 5.22-3.594 4.88-5.99h-4.88z"/>
    </g>
</svg>
