<svg xmlns="http://www.w3.org/2000/svg" width="29" height="17" viewBox="0 0 29 17">
    <path fill="#FFF" fill-rule="nonzero" d="M8.388 7.19v2.875h4.757c-.192 1.233-1.438 3.619-4.757 3.619-2.864 0-5.2-2.371-5.2-5.296 0-2.924 2.336-5.297 5.2-5.297 1.63 0 2.72.695 3.343 1.295l2.276-2.193C12.546.827 10.652 0 8.387 0A8.382 8.382 0 0 0 0 8.388a8.382 8.382 0 0 0 8.388 8.387c4.84 0 8.053-3.403 8.053-8.196 0-.55-.061-.97-.133-1.39h-7.92zm0 0l20.37 2.396h-3.595v3.595h-2.396V9.586h-3.595V7.189h3.595V3.595h2.396v3.594h3.595v2.397L8.388 7.189z"/>
</svg>
