<svg xmlns="http://www.w3.org/2000/svg" width="13" height="12" viewBox="0 0 13 12">
    <path fill="#FF8B34" fill-rule="evenodd" d="M13 12h-2.873V7.782c0-1.105-.45-1.858-1.438-1.858-.756 0-1.176.508-1.372.998-.073.176-.062.422-.062.667V12H4.41s.036-7.473 0-8.152h2.846v1.28c.168-.56 1.078-1.358 2.53-1.358 1.8 0 3.215 1.172 3.215 3.697V12zM1.53 2.828h-.018C.595 2.828 0 2.205 0 1.415 0 .61.612 0 1.548 0c.935 0 1.51.609 1.528 1.413 0 .79-.593 1.415-1.546 1.415zM.328 3.848h2.534V12H.328V3.848z"/>
</svg>
