<svg xmlns="http://www.w3.org/2000/svg" width="9" height="26" viewBox="0 0 9 26">
    <g fill="none" fill-rule="evenodd">
        <path stroke="#0F1820" stroke-linecap="round" stroke-linejoin="round" stroke-width="1.125" d="M4.846 24.959v-9.181M6.373 2.317c0 .843-.684 2.02-1.527 2.02-.842 0-1.526-1.177-1.526-2.02a1.526 1.526 0 1 1 3.053 0zM2.871 24.959l-.603-10.857c-.009-.219-.713.067-.72-.141-.288-7.679.35-8.167.423-8.227.085-.024.781-.043.99-.056.281-.018.524.154.654.405.459.89 2.004.89 2.463 0 .13-.25.372-.423.654-.405.208.013.905.032.99.056.072.06.71.548.424 8.227-.008.208-.712-.078-.721.142L6.82 24.959"/>
        <path d="M-10-2h29.691v29.691h-29.69z"/>
    </g>
</svg>
