<svg xmlns="http://www.w3.org/2000/svg" width="22" height="69" viewBox="0 0 22 69">
    <g fill="none" fill-rule="evenodd">
        <path stroke="#FF8B34" stroke-linecap="round" stroke-linejoin="round" stroke-width="3" d="M10.59 66.89V42.407M14.66 6.513c0 2.248-1.822 5.387-4.07 5.387-2.247 0-4.07-3.139-4.07-5.387a4.07 4.07 0 1 1 8.14 0zM5.323 66.89L3.715 37.94c-.024-.585-1.902.176-1.923-.378-.765-20.476.937-21.778 1.13-21.94.226-.062 2.084-.113 2.64-.148.751-.047 1.4.412 1.744 1.082 1.224 2.373 5.344 2.373 6.568 0 .345-.67.993-1.129 1.745-1.082.555.035 2.413.086 2.64.149.192.16 1.894 1.463 1.13 21.94-.021.554-1.9-.208-1.923.377l-1.61 28.95"/>
        <path d="M-28.998-4.999h79.175v79.176h-79.175z"/>
    </g>
</svg>
