<svg xmlns="http://www.w3.org/2000/svg" xmlns:xlink="http://www.w3.org/1999/xlink" width="20" height="20" viewBox="0 0 20 20">
    <defs>
        <path id="a" d="M9.998 14.118a4.107 4.107 0 1 1 0-8.213 4.107 4.107 0 0 1 0 8.213zm0-1.3a2.807 2.807 0 1 0 0-5.613 2.807 2.807 0 0 0 0 5.614zm6.673.74l1.291 1.68a.65.65 0 0 1 .003.788 10.036 10.036 0 0 1-1.949 1.95.65.65 0 0 1-.788-.003l-1.68-1.29a7.507 7.507 0 0 1-1.338.555l-.275 2.1a.65.65 0 0 1-.555.56c-.934.129-1.823.129-2.756 0a.65.65 0 0 1-.556-.56l-.274-2.098a7.507 7.507 0 0 1-1.342-.555l-1.68 1.29a.65.65 0 0 1-.788.004 10.12 10.12 0 0 1-1.949-1.948.65.65 0 0 1 .003-.789l1.29-1.679a7.506 7.506 0 0 1-.557-1.343l-2.099-.275a.65.65 0 0 1-.56-.555 10.102 10.102 0 0 1 0-2.755.65.65 0 0 1 .56-.556l2.099-.275c.142-.465.329-.915.557-1.343l-1.29-1.68a.65.65 0 0 1-.003-.787 10.12 10.12 0 0 1 1.95-1.949.65.65 0 0 1 .787.004l1.68 1.29a7.506 7.506 0 0 1 1.342-.555L8.068.685a.65.65 0 0 1 .556-.56 9.861 9.861 0 0 1 2.756.002c.29.04.517.27.555.56l.275 2.099c.464.142.912.328 1.339.556l1.679-1.29a.65.65 0 0 1 .788-.004 10.036 10.036 0 0 1 1.95 1.95.65.65 0 0 1-.004.788l-1.29 1.68c.226.427.412.874.553 1.337l2.1.275a.65.65 0 0 1 .559.556c.13.938.129 1.827 0 2.756a.65.65 0 0 1-.56.556l-2.099.275c-.141.463-.327.91-.554 1.337zm-1.294.45a.65.65 0 0 1-.04-.736c.34-.555.59-1.157.744-1.792a.65.65 0 0 1 .547-.492l2.023-.265c.04-.476.04-.943 0-1.422l-2.023-.265a.65.65 0 0 1-.547-.492 6.213 6.213 0 0 0-.743-1.792.65.65 0 0 1 .039-.735l1.244-1.619a8.738 8.738 0 0 0-1.005-1.005l-1.618 1.243a.65.65 0 0 1-.736.039 6.212 6.212 0 0 0-1.793-.744.65.65 0 0 1-.492-.548l-.265-2.023a8.429 8.429 0 0 0-1.42 0L9.026 3.38a.65.65 0 0 1-.493.548 6.212 6.212 0 0 0-1.796.744.65.65 0 0 1-.735-.04L4.385 3.39A8.879 8.879 0 0 0 3.38 4.394l1.243 1.618a.65.65 0 0 1 .039.736 6.212 6.212 0 0 0-.746 1.797.65.65 0 0 1-.548.492l-2.021.265a8.83 8.83 0 0 0 0 1.42l2.021.265a.65.65 0 0 1 .548.492c.153.637.405 1.241.746 1.797a.65.65 0 0 1-.04.736L3.38 15.63c.305.358.643.696 1.005 1.004l1.618-1.244a.65.65 0 0 1 .735-.039c.556.34 1.16.592 1.796.744a.65.65 0 0 1 .493.548l.264 2.022c.477.04.944.04 1.421 0l.265-2.024a.65.65 0 0 1 .492-.548 6.212 6.212 0 0 0 1.793-.744.65.65 0 0 1 .736.039l1.618 1.243a8.738 8.738 0 0 0 1.005-1.005l-1.244-1.619z"/>
    </defs>
    <g fill="none" fill-rule="evenodd">
        <mask id="b" fill="#fff">
            <use xlink:href="#a"/>
        </mask>
        <use fill="#0F1820" fill-rule="nonzero" xlink:href="#a"/>
        <g fill="#0F1820" mask="url(#b)">
            <path d="M0 0h20v20H0z"/>
        </g>
    </g>
</svg>
