<svg xmlns="http://www.w3.org/2000/svg" xmlns:xlink="http://www.w3.org/1999/xlink" width="24" height="24" viewBox="0 0 24 24">
    <defs>
        <path id="a" d="M6 7a1 1 0 1 1 0-2h13a1 1 0 0 1 0 2H6zm-.333 6C5.298 13 5 12.552 5 12s.298-1 .667-1h8.666c.369 0 .667.448.667 1s-.298 1-.667 1H5.667zM6 19a1 1 0 0 1 0-2h13a1 1 0 0 1 0 2H6z"/>
    </defs>
    <g fill="none" fill-rule="evenodd">
        <mask id="b" fill="#fff">
            <use xlink:href="#a"/>
        </mask>
        <use fill="#000" fill-rule="nonzero" xlink:href="#a"/>
        <g fill="#000" mask="url(#b)">
            <path d="M0 0h24v24H0z"/>
        </g>
    </g>
</svg>
