<?xml version="1.0" encoding="UTF-8"?>
<svg width="30px" height="26px" viewBox="0 0 30 26" version="1.1" xmlns="http://www.w3.org/2000/svg" xmlns:xlink="http://www.w3.org/1999/xlink">
    <!-- Generator: sketchtool 51.3 (57544) - http://www.bohemiancoding.com/sketch -->
    <title>CFAA54B0-46F7-4906-A8C7-7039D54883C0</title>
    <desc>Created with sketchtool.</desc>
    <defs>
        <path d="M6.3607438,17.5350455 C2.79773217,16.6324723 0.557355372,13.3301147 0.557355372,9.17012933 C0.557355372,4.38001043 3.73691042,0.557850672 7.85194215,0.557850672 L14.7752479,0.557850672 C18.9405358,0.557850672 22.2357025,4.27659605 22.2357025,9.00534083 C22.2357025,13.7337823 18.9404591,17.4525711 14.7752479,17.4525711 L12.8526001,17.4525711 L7.42059484,23.1922986 C7.03083385,23.6041395 6.3607438,23.3147854 6.3607438,22.7346404 L6.3607438,17.5350455 Z M7.60041322,21.1570908 L12.1544052,16.345116 C12.2707843,16.222144 12.4291829,16.1529772 12.5944215,16.1529772 L14.7752479,16.1529772 C18.2345595,16.1529772 20.9960331,13.036565 20.9960331,9.00534083 C20.9960331,4.97381027 18.2346328,1.85744455 14.7752479,1.85744455 L7.85194215,1.85744455 C4.46215988,1.85744455 1.79702479,5.06121738 1.79702479,9.17012933 C1.79702479,12.9219261 3.84981104,15.775835 7.08696529,16.3663737 C7.44472723,16.4316386 7.60932535,16.7303283 7.60041322,17.023859 L7.60041322,21.1570908 Z M6.37326446,9.65513777 C6.0309392,9.65513777 5.75342975,9.36421377 5.75342975,9.00534083 C5.75342975,8.64646789 6.0309392,8.35554389 6.37326446,8.35554389 L16.0922727,8.35554389 C16.434598,8.35554389 16.7121074,8.64646789 16.7121074,9.00534083 C16.7121074,9.36421377 16.434598,9.65513777 16.0922727,9.65513777 L6.37326446,9.65513777 Z M6.37326446,7.0556901 C6.0309392,7.0556901 5.75342975,6.7647661 5.75342975,6.40589316 C5.75342975,6.04702022 6.0309392,5.75609622 6.37326446,5.75609622 L16.0922727,5.75609622 C16.434598,5.75609622 16.7121074,6.04702022 16.7121074,6.40589316 C16.7121074,6.7647661 16.434598,7.0556901 16.0922727,7.0556901 L6.37326446,7.0556901 Z M6.37326446,12.2541956 C6.0309392,12.2541956 5.75342975,11.9632716 5.75342975,11.6043986 C5.75342975,11.2455257 6.0309392,10.9546017 6.37326446,10.9546017 L11.2327686,10.9546017 C11.5750939,10.9546017 11.8526033,11.2455257 11.8526033,11.6043986 C11.8526033,11.9632716 11.5750939,12.2541956 11.2327686,12.2541956 L6.37326446,12.2541956 Z M18.9844215,22.6509466 C17.253787,22.6509466 15.6313008,21.5884806 14.5776685,19.9296186 C14.3879405,19.6309066 14.4651237,19.2275129 14.7500621,19.0286136 C15.0350004,18.8297143 15.4197935,18.9106285 15.6095216,19.2093405 C16.4480271,20.5295022 17.7030706,21.3513527 18.9844215,21.3513527 L20.8632645,21.3513527 C21.0276165,21.3513527 21.1852404,21.4197814 21.3014755,21.5415918 L23.3692562,23.7085533 L23.3692562,21.715239 C23.3692562,21.3658668 23.6327731,21.0790288 23.9658003,21.0659009 C26.1289559,20.98063 28.0942562,18.6938159 28.0942562,16.0466704 C28.0942562,13.2695069 26.2097104,11.0937882 23.8787603,11.0937882 C23.5364351,11.0937882 23.2589256,10.8028642 23.2589256,10.4439913 C23.2589256,10.0851183 23.5364351,9.79419431 23.8787603,9.79419431 C26.9224688,9.79419431 29.3339256,12.5782348 29.3339256,16.0466704 C29.3339256,19.1394153 27.197205,21.8439152 24.6089256,22.3003155 L24.6089256,25.276906 C24.6089256,25.8557573 23.9413859,26.1457004 23.5508798,25.7364638 L20.6065853,22.6509466 L18.9844215,22.6509466 Z" id="path-1"></path>
    </defs>
    <g id="Componentes" stroke="none" stroke-width="1" fill="none" fill-rule="evenodd">
        <g id="Design" transform="translate(-1017.000000, -266.000000)">
            <g id="chat_icon" transform="translate(1017.000000, 266.000000)">
                <g>
                    <mask id="mask-2" fill="white">
                        <use xlink:href="#path-1"></use>
                    </mask>
                    <use id="Combined-Shape" fill="#0F1820" fill-rule="nonzero" xlink:href="#path-1"></use>
                    <g id="COLOR/-black" mask="url(#mask-2)" fill="#000000">
                        <g transform="translate(0.000000, -2.041337)" id="Rectangle">
                            <rect x="0" y="0" width="30.847503" height="31.8757531"></rect>
                        </g>
                    </g>
                </g>
            </g>
        </g>
    </g>
</svg>