<?xml version="1.0" encoding="UTF-8"?>
<svg 
  xmlns="http://www.w3.org/2000/svg" 
  xmlns:xlink="http://www.w3.org/1999/xlink" width="24px" height="24px" viewBox="0 0 24 24">
  <defs>
    <path id="a" d="M16.963 2.025a.534.534 0 0 1 .35-.613L20.898.32c.263-.08.535.082.609.363l2.084 7.925c.074.28-.08.572-.341.652l-3.584 1.094c-.263.08-.535-.083-.609-.363l-.063-.242a1.008 1.008 0 0 0-.163.003c-.097.006-.283.03-.48.04a1.81 1.81 0 0 1-.358.766c-.28.354-.653.568-1.044.608a1.778 1.778 0 0 1-.39 1.03c-.395.499-.976.72-1.53.567a1.7 1.7 0 0 1-.296.62c-.53.697-1.436.791-2.187.113l-.178-.165a1.572 1.572 0 0 1-.238.445c-.517.677-1.412.735-2.142.074a15.972 15.972 0 0 1-.246-.206 52.414 52.414 0 0 1-2.593-2.347c-.33-.321-.645-.629-.924-.935-.795-.872-1.288-1.4-1.288-1.663l.01-.051-.298 1.131c-.074.28-.346.443-.609.363L.456 9.048c-.263-.08-.416-.372-.342-.652L2.198.47c.074-.28.346-.443.609-.363L6.39 1.201c.14.043.25.147.31.278a59.699 59.699 0 0 1 3.258-.19 4.47 4.47 0 0 1 1.528-.564c.035-.01.079-.018.132-.026.946-.139 2.473.204 4.658 1.382l.648-.19.038.134zm.23.88l-.82.246a.465.465 0 0 1-.369-.036c-1.208-.665-2.224-1.068-3.057-1.26-.552-.128-.945-.148-1.194-.111l-.032.005a.467.467 0 0 1-.058.013 3.523 3.523 0 0 0-1.333.516 3.723 3.723 0 0 0-1.323 1.515c-.412.853-.407 1.663-.122 1.884.093.073.186.09.31.06.252-.062.576-.31.912-.687a6.165 6.165 0 0 0 .594-.79.479.479 0 0 1 .549-.22c.027.009.171-.004.36-.049.09-.021.188-.049.29-.08a5.933 5.933 0 0 0 .39-.14.469.469 0 0 1 .489.084l5.063 4.41c.162.146.287.312.376.49.131.009.263 0 .382-.03a.485.485 0 0 1 .119-.019l-1.526-5.801zm-10.659-.3L5.24 7.526c.226.494.824 1.183 1.678 2.086.276.291.575.594.896.906a49.105 49.105 0 0 0 2.715 2.448l.078.065c.336.303.598.286.757.079.16-.209.139-.505-.106-.726l-.025-.024-.745-.772a.553.553 0 0 1-.017-.752.471.471 0 0 1 .685-.025l2.031 1.884c.323.292.596.263.778.023a.55.55 0 0 0-.065-.766l.022-.028c.202.111.456.06.606-.135a.556.556 0 0 0 .032-.622c.46.43.606 1.041.469 1.596a1.515 1.515 0 0 1-.614-.346l-.515-.465a.593.593 0 0 1-.103-.121l-1.687-1.475a.552.552 0 0 1-.07-.742.472.472 0 0 1 .695-.074l1.724 1.507c.04.035.073.075.1.12l.494.445c.248.225.536.175.75-.097.216-.272.214-.584-.033-.807l.319-.403.319-.402a1.808 1.808 0 0 1 .146.148c.258.287.631.82.394 1.115-.246.305-.766-.097-1.048-.343a1.78 1.78 0 0 1-.05-.043l-.08-.072-2.113-1.896a.552.552 0 0 1-.06-.742.472.472 0 0 1 .695-.065L16.405 9.9a.66.66 0 0 1 .006.006l.076.069c.249.224.536.174.751-.097a.648.648 0 0 0 .156-.443.555.555 0 0 1-.036-.156.567.567 0 0 0-.147-.203L12.37 4.858a6.712 6.712 0 0 1-.544.163 2.593 2.593 0 0 1-.468.074l-.028.04a7.19 7.19 0 0 1-.507.641c-.458.515-.922.87-1.406.988-.394.097-.78.025-1.113-.235-.772-.601-.781-1.96-.173-3.22.16-.33.352-.637.576-.919-.715.037-1.271.087-1.686.147-.215.03-.375.048-.486.069zm.109-.412c.037-.102.072-.218.098-.346a.295.295 0 0 0 .005-.065.563.563 0 0 1-.014.07l-.09.34zm-.109.413l.109-.413c-.1.272-.219.44-.226.443a.711.711 0 0 1 .117-.03zm.212-.824a.559.559 0 0 0-.045-.303c-.013 0-.025.002-.038.003.054.12.081.22.083.3zm-1.8 6.865l.294-1.121a1.38 1.38 0 0 1-.057-.146c-.017.071-.194 1.032-.238 1.267zM3.83 8.98l1.818-6.91-2.634-.804-1.818 6.911 2.634.803zm13.132-6.956a.564.564 0 0 0 .01.04l.22.84.018-.006-.248-.874zm1.756 6.681l.274 1.042c.007 0 .01.002.01.005l-.247-1.034c-.005-.008-.018-.012-.037-.013zm1.154.487l2.634-.803-1.818-6.911-2.634.803 1.818 6.911z"/>
  </defs>
  <g fill="none" fill-rule="evenodd">
    <path fill="#F5F7F8" d="M-221-601h375v2050h-375z"/>
    <g transform="translate(100 100)">
      <mask id="b" fill="#fff">
        <use xlink:href="#a"/>
      </mask>
      <use fill="#FF8B34" fill-rule="nonzero" xlink:href="#a"/>
      <g fill="#FF8B34" mask="url(#b)">
        <path d="M0-5.535h23.497V18.94H0z"/>
      </g>
    </g>
  </g>
</svg>