<svg xmlns="http://www.w3.org/2000/svg" xmlns:xlink="http://www.w3.org/1999/xlink" width="19" height="20" viewBox="0 0 19 20">
    <defs>
        <path id="a" d="M13.993 17.987v-1.744a.618.618 0 0 1 1.235 0v1.744h1.967v-9.12l-5.098-1.062v10.182h1.896zM10.862 7.045V1.513l-9.07 1.355v15.119H4.49V14.68c0-.34.276-.617.617-.617h2.367c.341 0 .618.276.618.617v3.307h2.77V7.045zm1.235-.502l5.841 1.217c.287.06.492.312.492.604v10.24a.618.618 0 0 1-.617.618H1.174a.618.618 0 0 1-.618-.618V2.336c0-.306.224-.565.527-.61L11.388.185a.617.617 0 0 1 .709.61v5.747zM5.725 17.972h1.132v-2.674H5.725v2.674zm0-6.326h1.132v-1.147H5.725v1.147zm-.618-2.382h2.367c.341 0 .618.276.618.617v2.382a.617.617 0 0 1-.618.618H5.107a.617.617 0 0 1-.617-.618V9.881c0-.34.276-.617.617-.617zm.618-2.369h1.132V5.748H5.725v1.147zm-.618-2.382h2.367c.341 0 .618.277.618.618v2.382a.617.617 0 0 1-.618.617H5.107a.617.617 0 0 1-.617-.617V5.13c0-.341.276-.618.617-.618zm10.12 9.316a.617.617 0 1 1-1.234 0v-.855a.618.618 0 0 1 1.235 0v.855zm0-2.375a.617.617 0 1 1-1.234 0V10.6a.618.618 0 0 1 1.235 0v.855z"/>
    </defs>
    <g fill="none" fill-rule="evenodd">
        <mask id="b" fill="#fff">
            <use xlink:href="#a"/>
        </mask>
        <use fill="#0F1820" fill-rule="nonzero" xlink:href="#a"/>
        <g fill="#0F1820" mask="url(#b)">
            <path d="M0 0h19.253v19.253H0z"/>
        </g>
    </g>
</svg>
