<svg xmlns="http://www.w3.org/2000/svg" xmlns:xlink="http://www.w3.org/1999/xlink" width="21" height="20" viewBox="0 0 21 20">
    <defs>
        <path id="a" d="M18.786 6.453l1.83.003a.59.59 0 0 1 .59.593l-.049 11.943a.59.59 0 0 1-.59.589h-5.434l-.002.025a.59.59 0 0 1-.637.54l-11.382-.92a.59.59 0 0 1-.539-.662l.172-1.375h-.55a.59.59 0 0 1-.59-.591v-12a.59.59 0 0 1 .59-.591h1.688l.092-1.603a.59.59 0 0 1 .637-.555l11.383.911a.59.59 0 0 1 .538.666l-.076.58h1.738a.59.59 0 0 1 .591.592v1.855zm-1.182.59V5.189H15.87a.591.591 0 0 1-.173 0H4.527a.593.593 0 0 1-.173 0H2.786v10.818h14.818V7.043zm1.182.592v8.963a.59.59 0 0 1-.59.59h-2.867l-.1 1.21h4.749l.043-10.761-1.235-.002zm-4.643 9.554H3.936l-.113.909L14 18.92l.142-1.732zM5.067 4.007h10.198l.016-.118L5.12 3.075l-.053.932zm4.728 4.788h.003c.893 0 1.08 1.152.96 2.146a3.336 3.336 0 0 1-3.308 2.933 3.337 3.337 0 0 1-.006-6.672c.259 0 .38.007.545.06.368.116.612.438.56.857l-.146 1.198c1.16-.509 1.223-.522 1.392-.522zM7.93 10.817a.59.59 0 0 1-.825-.612l.221-1.819a2.155 2.155 0 0 0 .124 4.306 2.155 2.155 0 0 0 2.134-1.894 3.088 3.088 0 0 0-.024-.693c-.305.13-.816.353-1.63.712zm4.677 2.372a.59.59 0 1 1 0-1.182h3.176a.59.59 0 1 1 0 1.182h-3.176zm0-2.4a.59.59 0 1 1 0-1.183h3.176a.59.59 0 1 1 0 1.182h-3.176zm0-2.401a.59.59 0 1 1 0-1.182h3.176a.59.59 0 1 1 0 1.182h-3.176z"/>
    </defs>
    <g fill="none" fill-rule="evenodd" transform="translate(-1 -1)">
        <mask id="b" fill="#fff">
            <use xlink:href="#a"/>
        </mask>
        <use fill="#0F1820" fill-rule="nonzero" xlink:href="#a"/>
        <g fill="#0F1820" mask="url(#b)">
            <path d="M0 0h22v22H0z"/>
        </g>
    </g>
</svg>
