<svg xmlns="http://www.w3.org/2000/svg" xmlns:xlink="http://www.w3.org/1999/xlink" width="14" height="19" viewBox="0 0 14 19">
    <defs>
        <path id="a" d="M12.767 4.345h-2.388a.622.622 0 0 1-.616-.628V1.255h-8.53v14.809l1.192 1.31 1.796-1.975a.61.61 0 0 1 .905 0l1.866 2.05 1.865-2.05a.61.61 0 0 1 .905 0l1.87 2.054 1.135-1.225V4.345zm-1.771-2.368v1.112h1.096l-1.096-1.112zm-.213 11.153c.34 0 .616.281.616.628a.622.622 0 0 1-.616.627H3.24a.622.622 0 0 1-.616-.627c0-.347.276-.628.616-.628h7.542zm0-2.317c.34 0 .616.281.616.628a.622.622 0 0 1-.616.627H3.24a.622.622 0 0 1-.616-.627c0-.347.276-.628.616-.628h7.542zm0-2.317c.34 0 .616.281.616.628a.622.622 0 0 1-.616.627H3.24a.622.622 0 0 1-.616-.627c0-.347.276-.628.616-.628h7.542zM7.43 6.18c.34 0 .617.281.617.628a.622.622 0 0 1-.617.627h-4.19a.622.622 0 0 1-.616-.627c0-.347.276-.628.616-.628h4.19zM0 16.319V1.25C0 .57.536 0 1.208 0h9.171c.34 0 .528.114.775.365l2.488 2.524c.232.236.358.492.358.828v12.76c0 .16-.06.315-.168.431l-1.756 1.895a.61.61 0 0 1-.9-.004l-1.866-2.05-1.866 2.05a.61.61 0 0 1-.904 0l-1.866-2.05-1.797 1.974a.61.61 0 0 1-.904 0L.229 16.808A.63.63 0 0 1 0 16.32z"/>
    </defs>
    <g fill="none" fill-rule="evenodd">
        <mask id="b" fill="#fff">
            <use xlink:href="#a"/>
        </mask>
        <use fill="#0F1820" fill-rule="nonzero" xlink:href="#a"/>
        <g fill="#0F1820" mask="url(#b)">
            <path d="M-4-2h22v22H-4z"/>
        </g>
    </g>
</svg>
