<svg xmlns="http://www.w3.org/2000/svg" xmlns:xlink="http://www.w3.org/1999/xlink" width="24" height="24" viewBox="0 0 24 24">
    <defs>
        <path id="a" d="M18.586 13H9a1 1 0 0 1 0-2h9.586l-2.293-2.293a1 1 0 1 1 1.414-1.414l4 4a1 1 0 0 1 0 1.414l-4 4a1 1 0 0 1-1.414-1.414L18.586 13zM10 21a1 1 0 0 1 0 2H5a3 3 0 0 1-3-3V4a3 3 0 0 1 3-3h5a1 1 0 0 1 0 2H5a1 1 0 0 0-1 1v16a1 1 0 0 0 1 1h5z"/>
    </defs>
    <g fill="none" fill-rule="evenodd">
        <mask id="b" fill="#fff">
            <use xlink:href="#a"/>
        </mask>
        <use fill="#000" fill-rule="nonzero" xlink:href="#a"/>
        <g fill="#000" mask="url(#b)">
            <path d="M0 0h24v24H0z"/>
        </g>
    </g>
</svg>
