<svg xmlns="http://www.w3.org/2000/svg" xmlns:xlink="http://www.w3.org/1999/xlink" width="24" height="20" viewBox="0 0 24 20">
    <defs>
        <path id="a" d="M6.281 17.547l3.42-3.411a.65.65 0 0 1 .458-.19h1.76c2.706 0 4.868-2.303 4.868-5.288 0-2.986-2.162-5.288-4.868-5.288H6.334C3.686 3.37 1.6 5.737 1.6 8.783c0 2.784 1.605 4.89 4.141 5.328a.65.65 0 0 1 .54.64v2.796zm-1.3-2.271C2.105 14.533.3 11.979.3 8.783c0-3.73 2.628-6.713 6.034-6.713h5.585c3.443 0 6.168 2.902 6.168 6.588 0 3.685-2.725 6.588-6.168 6.588h-1.49L6.09 19.573a.65.65 0 0 1-1.109-.46v-3.837zm10.333 3.929c-1.449 0-2.801-.837-3.678-2.14a.65.65 0 0 1 1.079-.725c.65.966 1.618 1.565 2.6 1.565h1.515a.65.65 0 0 1 .457.188l1.414 1.399v-1.155a.65.65 0 0 1 .626-.65c1.664-.061 3.186-1.734 3.186-3.667 0-2.03-1.455-3.616-3.25-3.616a.65.65 0 1 1 0-1.3c2.54 0 4.55 2.19 4.55 4.916 0 2.384-1.709 4.473-3.812 4.893v2.136a.65.65 0 0 1-1.107.462l-2.332-2.306h-1.248zM5.141 9.308a.65.65 0 1 1 0-1.3h7.84a.65.65 0 1 1 0 1.3h-7.84zm0-1.98a.65.65 0 1 1 0-1.3h7.84a.65.65 0 1 1 0 1.3h-7.84zm0 3.96a.65.65 0 1 1 0-1.3h3.92a.65.65 0 0 1 0 1.3h-3.92z"/>
    </defs>
    <g fill="none" fill-rule="evenodd" transform="translate(0 -2)">
        <mask id="b" fill="#fff">
            <use xlink:href="#a"/>
        </mask>
        <use fill="#0F1820" fill-rule="nonzero" xlink:href="#a"/>
        <g fill="#0F1820" mask="url(#b)">
            <path d="M0 .245h24v24H0z"/>
        </g>
    </g>
</svg>
