<?xml version="1.0" encoding="UTF-8"?>
<svg width="24px" height="24px" viewBox="0 0 24 24" version="1.1" xmlns="http://www.w3.org/2000/svg" xmlns:xlink="http://www.w3.org/1999/xlink">
    <!-- Generator: sketchtool 51.3 (57544) - http://www.bohemiancoding.com/sketch -->
    <title>10B3F8F3-0E2E-40B1-8BDB-5D063F312693</title>
    <desc>Created with sketchtool.</desc>
    <defs>
        <path d="M21.2381238,16.9200983 C21.2553271,16.21871 20.7560786,15.6294808 20.0831314,15.5345177 C19.0744635,15.4014846 18.0840827,15.1547705 17.1294142,14.7985323 C16.6360736,14.6130862 16.07992,14.7316971 15.7077432,15.0997177 L14.4377432,16.3697177 C14.2308398,16.5766212 13.9111929,16.6197731 13.6568324,16.4751397 C11.05158,14.9937523 8.89446978,12.8366421 7.41308237,10.2313897 C7.26844899,9.97702925 7.31160094,9.65738236 7.51850439,9.45047891 L8.7859398,8.18305789 C9.15652497,7.80830212 9.27513593,7.25214854 9.08914059,6.75734147 C8.73345158,5.80413941 8.48673751,4.81375863 8.35452087,3.81106684 C8.25968394,3.14009489 7.68212911,2.64339773 6.9981238,2.65009832 L3.99873592,2.65009803 C3.61978703,2.6504549 3.25843612,2.81006607 3.00295282,3.08994224 C2.74746952,3.36981842 2.62138034,3.74418685 2.65448947,4.1114586 C2.97195138,7.10092984 3.98914233,9.97358311 5.62673276,12.5014894 C7.11089103,14.8371222 9.09109994,16.8173311 11.4317896,18.3047356 C13.9434906,19.9335646 16.8022413,20.9505246 19.7666292,21.2727367 C20.1452123,21.3069511 20.5206769,21.1799723 20.8007817,20.9229954 C21.0808865,20.6660185 21.2396721,20.3028596 21.2381238,19.9200983 L21.2381238,16.9200983 Z M22.5381184,19.91746 C22.5411471,20.6636273 22.229457,21.3764948 21.6796216,21.8809309 C21.1297862,22.3853671 20.3927632,22.6346217 19.6379093,22.5662948 C16.459674,22.2209536 13.4067553,21.1349211 10.7295148,19.3987073 C8.2328039,17.8121933 6.11602886,15.6954182 4.53259188,13.2035031 C2.78706138,10.5090215 1.70078222,7.44125592 1.36076168,4.23859861 C1.29381368,3.49775445 1.54132209,2.76288307 2.04282633,2.21349651 C2.54433058,1.66410994 3.25364905,1.35079912 3.9981238,1.35009832 L6.99172673,1.3501298 C8.3218466,1.33703859 9.45556535,2.31203671 9.64254315,3.63510595 C9.76275612,4.54657091 9.98569493,5.44151099 10.3065578,6.30138875 C10.6705817,7.26979816 10.4377528,8.36150705 9.70774321,9.09971773 L8.79383748,10.0136235 C10.0615639,12.0852736 11.8029508,13.8266601 13.8746012,15.0943862 L14.7910834,14.1779143 C15.5267151,13.4504693 16.618424,13.2176404 17.5853669,13.5811151 C18.4467111,13.9025272 19.3416512,14.125466 20.2589238,14.2464716 C21.5884488,14.4340351 22.567113,15.5861358 22.5381238,16.9276057 L22.5381184,19.91746 Z" id="path-1"></path>
    </defs>
    <g id="Symbols" stroke="none" stroke-width="1" fill="none" fill-rule="evenodd">
        <g id="phone_icon">
            <mask id="mask-2" fill="white">
                <use xlink:href="#path-1"></use>
            </mask>
            <use id="Shape" fill="#000000" fill-rule="nonzero" xlink:href="#path-1"></use>
            <g id="COLOR/-black" mask="url(#mask-2)" fill="#0F1820">
                <rect id="Rectangle" x="0" y="0" width="24" height="24"></rect>
            </g>
        </g>
    </g>
</svg>