<svg xmlns="http://www.w3.org/2000/svg" xmlns:xlink="http://www.w3.org/1999/xlink" width="19" height="17" viewBox="0 0 19 17">
    <defs>
        <path id="a" d="M7.062 3.222c-.035.42-.08.884-.134 1.383-.161 1.47-.377 2.94-.657 4.316-.326 1.6-.717 2.97-1.186 4.044a.602.602 0 1 1-1.104-.482c.43-.984.8-2.277 1.11-3.802.271-1.336.482-2.771.64-4.207a52.738 52.738 0 0 0 .173-1.91.602.602 0 0 1 .62-.564l11.083.346c.345.011.61.308.582.651a75.975 75.975 0 0 1-.244 2.49 76.109 76.109 0 0 1-.73 5.055c-.63 3.47-1.406 5.96-2.41 7.157-.593.706-1.221.977-1.866.83h-.115a972.265 972.265 0 0 1-5.213-.047c-1.55-.018-2.853-.04-3.826-.065-1.332-.033-2.33-.828-3.032-2.08a7.256 7.256 0 0 1-.573-1.329 6.065 6.065 0 0 1-.168-.62.602.602 0 0 1 .605-.72l9.79.241c.231.006.44.144.534.355 1.356 3.013 2.21 3.533 2.941 2.66.82-.976 1.556-3.339 2.149-6.598a74.94 74.94 0 0 0 .717-4.973c.083-.738.14-1.31.186-1.823l-9.872-.308zm2.94 11.882l-8.588-.211c.107.294.237.584.39.856.514.917 1.175 1.443 2.011 1.464.967.025 2.265.046 3.81.065 1.176.014 2.432.026 3.692.036-.441-.556-.881-1.295-1.315-2.21zM8.755 6.723A.602.602 0 1 1 8.8 5.519l5.653.213a.602.602 0 1 1-.046 1.203l-5.652-.212zm-.416 2.728a.602.602 0 0 1 .045-1.204l5.284.199a.602.602 0 0 1-.045 1.203L8.34 9.451zm-.67 2.737a.602.602 0 0 1 .046-1.203l3.016.113a.602.602 0 1 1-.045 1.204l-3.016-.114z"/>
    </defs>
    <g fill="none" fill-rule="evenodd" transform="translate(0 -2)">
        <mask id="b" fill="#fff">
            <use xlink:href="#a"/>
        </mask>
        <use fill="#000" fill-rule="nonzero" xlink:href="#a"/>
        <g fill="#0F1820" mask="url(#b)">
            <path d="M0 0h19v19H0z"/>
        </g>
    </g>
</svg>
