<svg xmlns="http://www.w3.org/2000/svg" xmlns:xlink="http://www.w3.org/1999/xlink" width="21" height="19" viewBox="0 0 21 19">
    <defs>
        <path id="a" d="M13.578 8.197l5.579.113c1.132.024 1.597 1.465.691 2.148l-4.436 3.328 1.611 5.266c.333 1.079-.886 1.973-1.817 1.333l-4.583-3.155-4.582 3.155c-.928.642-2.151-.251-1.82-1.332l1.612-5.267-4.438-3.33c-.904-.682-.44-2.122.693-2.146l5.58-.113L9.495 2.99c.372-1.063 1.878-1.067 2.252-.002l1.83 5.208zm5.243 1.406l-5.72-.116a.65.65 0 0 1-.6-.434l-1.878-5.346-1.879 5.346a.65.65 0 0 1-.6.434l-5.72.116 4.554 3.417a.65.65 0 0 1 .231.71L5.554 19.14l4.7-3.236a.65.65 0 0 1 .737 0l4.7 3.236-1.656-5.411a.65.65 0 0 1 .232-.71l4.554-3.417z"/>
    </defs>
    <g fill="none" fill-rule="evenodd" transform="translate(0 -2)">
        <mask id="b" fill="#fff">
            <use xlink:href="#a"/>
        </mask>
        <use fill="#0F1820" fill-rule="nonzero" xlink:href="#a"/>
        <g fill="#0F1820" mask="url(#b)">
            <path d="M0 0h22v22H0z"/>
        </g>
    </g>
</svg>
