<svg xmlns="http://www.w3.org/2000/svg" xmlns:xlink="http://www.w3.org/1999/xlink" width="30" height="30" viewBox="0 0 30 30">
    <defs>
        <path id="a" d="M9.831 12.526c.857-3.231 3.23-5.579 6.083-5.579 2.045 0 3.908 1.222 5.107 3.236l-1.078.642c-.986-1.657-2.46-2.623-4.029-2.623-2.128 0-3.997 1.774-4.78 4.324h5.57v1.254H10.85a9.37 9.37 0 0 0-.035 2.569h5.89v1.254h-5.643c.735 2.683 2.655 4.574 4.852 4.574 1.643 0 3.18-1.06 4.16-2.853l1.102.602c-1.186 2.17-3.124 3.506-5.262 3.506-2.925 0-5.348-2.47-6.146-5.829H8.184V16.35h1.368a10.657 10.657 0 0 1 .03-2.569H8.185v-1.254H9.83zM15.04 29.84C6.878 29.84.262 23.225.262 15.063.262 6.902 6.878.285 15.04.285s14.778 6.617 14.778 14.778c0 8.162-6.616 14.778-14.778 14.778zm0-1.255c7.469 0 13.523-6.054 13.523-13.523 0-7.468-6.054-13.523-13.523-13.523-7.469 0-13.523 6.055-13.523 13.523 0 7.469 6.054 13.523 13.523 13.523z"/>
    </defs>
    <g fill="none" fill-rule="evenodd">
        <mask id="b" fill="#fff">
            <use xlink:href="#a"/>
        </mask>
        <use fill="#000" fill-rule="nonzero" xlink:href="#a"/>
        <g fill="#000" mask="url(#b)">
            <path d="M-.314 0H29.8v30.114H-.314z"/>
        </g>
    </g>
</svg>
