<svg width="23.999999999999996" height="23.999999999999996" xmlns="http://www.w3.org/2000/svg" xmlns:xlink="http://www.w3.org/1999/xlink">
 <defs>
  <path d="m13,4.414l0,11.586a1,1 0 0 1 -2,0l0,-11.586l-2.293,2.293a1,1 0 0 1 -1.414,-1.414l4,-4a1,1 0 0 1 1.414,0l4,4a1,1 0 1 1 -1.414,1.414l-2.293,-2.293zm-11,12.586a1,1 0 0 1 2,0l0,3a1,1 0 0 0 1,1l14,0a1,1 0 0 0 1,-1l0,-3a1,1 0 0 1 2,0l0,3a3,3 0 0 1 -3,3l-14,0a3,3 0 0 1 -3,-3l0,-3z" id="a"/>
 </defs>
 <g>
  <title>background</title>
  <rect fill="none" id="canvas_background" height="402" width="582" y="-1" x="-1"/>
 </g>
 <g>
  <title>Layer 1</title>
  <g id="svg_1" fill-rule="evenodd" fill="none">
   <mask fill="#999999" id="b">
    <use fill="#999999" id="svg_2" xlink:href="#a"/>
   </mask>
   <use id="svg_3" xlink:href="#a" fill-rule="nonzero" fill="#999999"/>
   <g id="svg_4" mask="url(#b)" fill="#000">
    <path fill="#999999" id="svg_5" d="m0,0l24,0l0,24l-24,0l0,-24z"/>
   </g>
  </g>
 </g>
</svg>