<svg xmlns="http://www.w3.org/2000/svg" xmlns:xlink="http://www.w3.org/1999/xlink" width="22" height="22" viewBox="0 0 22 22">
    <defs>
        <path id="a" d="M16.722 17.538A10.052 10.052 0 0 1 10 20.109c-5.566 0-10.093-4.527-10.093-10.093C-.094 4.449 4.433-.077 10-.077S20.092 4.45 20.092 10.016a10.07 10.07 0 0 1-3.37 7.522zm-.575-1.242a8.767 8.767 0 0 0 2.645-6.28c0-4.848-3.945-8.793-8.793-8.793-4.848 0-8.793 3.944-8.793 8.793a8.768 8.768 0 0 0 2.669 6.303c1.947-.821 3.29-1.555 3.513-1.851v-.434c-.5-.575-.894-1.306-1.151-2.131a1.993 1.993 0 0 1-.342-2.528V7.728c0-2.377 1.527-3.871 4.15-3.871 2.667 0 4.15 1.473 4.15 3.871v1.646a1.992 1.992 0 0 1-.342 2.53c-.257.825-.65 1.555-1.15 2.13v.432c.224.287 1.583 1.033 3.444 1.83zm-1.123.932c-2.144-.945-3.364-1.697-3.592-2.426l-.03-.194v-.827a.65.65 0 0 1 .186-.455c.471-.481.848-1.168 1.073-1.975a.65.65 0 0 1 .253-.357.691.691 0 0 0 .127-1.003.65.65 0 0 1-.145-.41V7.728c0-1.678-.9-2.571-2.85-2.571-1.912 0-2.851.919-2.851 2.571v1.854a.65.65 0 0 1-.146.41.692.692 0 0 0 .128 1.002.65.65 0 0 1 .252.356c.226.808.603 1.494 1.074 1.976a.65.65 0 0 1 .185.455v.827l-.03.194c-.234.753-1.43 1.483-3.652 2.448A8.743 8.743 0 0 0 10 18.81c1.867 0 3.6-.585 5.025-1.581z"/>
    </defs>
    <g fill="none" fill-rule="evenodd" transform="translate(1 1)">
        <mask id="b" fill="#fff">
            <use xlink:href="#a"/>
        </mask>
        <use fill="#0F1820" fill-rule="nonzero" xlink:href="#a"/>
        <g fill="#0F1820" mask="url(#b)">
            <path d="M0 0h20v20H0z"/>
        </g>
    </g>
</svg>
