<svg xmlns="http://www.w3.org/2000/svg" width="32" height="32" viewBox="0 0 32 32">
    <g fill="none" fill-rule="evenodd" transform="translate(1 1)">
        <path fill="#FF8B34" d="M19.772 12.49c.005.11.006.218.006.327 0 3.336-2.476 7.183-7.004 7.183A6.843 6.843 0 0 1 9 18.866a4.862 4.862 0 0 0 3.645-1.045c-1.077-.021-1.987-.751-2.3-1.754a2.406 2.406 0 0 0 1.112-.043c-1.126-.232-1.975-1.253-1.975-2.475v-.033c.332.19.712.303 1.115.317a2.543 2.543 0 0 1-1.095-2.102c0-.463.121-.896.333-1.269 1.214 1.528 3.029 2.532 5.075 2.637a2.59 2.59 0 0 1-.064-.575c0-1.394 1.103-2.524 2.462-2.524a2.43 2.43 0 0 1 1.797.797 4.843 4.843 0 0 0 1.564-.613 2.522 2.522 0 0 1-1.083 1.397A4.844 4.844 0 0 0 21 11.183c-.33.506-.747.951-1.228 1.307"/>
        <circle cx="15" cy="15" r="15" stroke="#FF8B34" stroke-width="2" opacity=".3"/>
    </g>
</svg>
