<svg 
    xmlns="http://www.w3.org/2000/svg" width="30" height="29" viewBox="0 0 30 29">
    <g fill="none" fill-rule="nonzero">
        <path fill="#E5EAED" d="M26.042 13.287v1.221c-.003 5.235-3.42 9.844-8.396 11.328-4.977 1.485-10.33-.51-13.154-4.902a11.902 11.902 0 0 1 .923-14.113 11.65 11.65 0 0 1 13.678-3.118 1.298 1.298 0 0 0 1.719-.665 1.318 1.318 0 0 0-.66-1.734C14.358-1.3 7.556.25 3.435 5.114c-4.121 4.864-4.58 11.883-1.128 17.25 3.453 5.368 9.994 7.805 16.077 5.991 6.083-1.814 10.258-7.448 10.262-13.846v-1.222c0-.726-.583-1.314-1.302-1.314-.72 0-1.302.588-1.302 1.314z"/>
        <path fill="#44CFAD" d="M14.323 15.278l-2.986-3.012a1.294 1.294 0 0 0-1.841 0 1.321 1.321 0 0 0 0 1.858l3.906 3.94a1.294 1.294 0 0 0 1.842 0L29.567 3.616a1.321 1.321 0 0 0 0-1.857 1.294 1.294 0 0 0-1.842 0L14.323 15.278z"/>
    </g>
</svg>