<svg 
    xmlns="http://www.w3.org/2000/svg" width="30" height="30" viewBox="0 0 30 30">
    <g fill="none" fill-rule="nonzero">
        <path fill="#E5EAED" d="M15 29.667C6.9 29.667.333 23.1.333 15S6.9.333 15 .333 29.667 6.9 29.667 15 23.1 29.667 15 29.667zM15 27c6.627 0 12-5.373 12-12S21.627 3 15 3 3 8.373 3 15s5.373 12 12 12z"/>
        <path fill="#FA704F" d="M18.057 10.057l-8 8a1.333 1.333 0 1 0 1.886 1.886l8-8a1.333 1.333 0 1 0-1.886-1.886z"/>
        <path fill="#FA704F" d="M10.057 11.943l8 8a1.333 1.333 0 1 0 1.886-1.886l-8-8a1.333 1.333 0 1 0-1.886 1.886z"/>
    </g>
</svg>