<svg 
    xmlns="http://www.w3.org/2000/svg" width="120" height="99" viewBox="0 0 120 99">
    <g fill="none" fill-rule="evenodd" transform="translate(0 2)">
        <ellipse cx="60" cy="93" fill="#EBEFF1" rx="60" ry="4"/>
        <path stroke="#63757E" stroke-linecap="round" stroke-linejoin="round" stroke-width="3.103" d="M87.673 49.654L67.78 6.12c-4.569-8.159-16.598-8.159-21.166 0L16.49 72.64c-4.382 7.823 1.434 17.36 10.586 17.36h43.842"/>
        <path stroke="#FF8B22" stroke-linecap="round" stroke-linejoin="round" stroke-width="3.103" d="M60.736 65.172H56.16L52.272 28.21c-.363-3.472 2.505-6.486 6.176-6.486 3.672 0 6.542 3.014 6.176 6.486l-3.888 36.962z"/>
        <path stroke="#FF8B22" stroke-linecap="round" stroke-linejoin="round" stroke-width="3.103" d="M62.552 76.034a4.655 4.655 0 1 0-9.31 0 4.655 4.655 0 0 0 9.31 0z" opacity=".4"/>
        <path stroke="#D6DDE1" stroke-linecap="round" stroke-linejoin="round" stroke-width="3.103" d="M67.759 77.586H105"/>
        <path stroke="#97ABB4" stroke-linecap="round" stroke-linejoin="round" stroke-width="3.103" d="M86.38 83.793V90h6.206-12.414"/>
        <path stroke="#63757E" stroke-linecap="round" stroke-linejoin="round" stroke-width="3.103" d="M101.146 83.793H71.613a3.854 3.854 0 0 1-3.854-3.854V59.717a3.854 3.854 0 0 1 3.854-3.855h29.533A3.854 3.854 0 0 1 105 59.717v20.222a3.854 3.854 0 0 1-3.854 3.854z"/>
    </g>
</svg>